{
  "header": {
    "keySignatures": [
      {
        "key": "C",
        "scale": "major",
        "ticks": 0
      }
    ],
    "meta": [],
    "name": "",
    "ppq": 960,
    "tempos": [
      {
        "bpm": 100,
        "ticks": 0
      }
    ],
    "timeSignatures": [
      {
        "ticks": 0,
        "timeSignature": [
          4,
          4
        ],
        "measures": 0
      }
    ]
  },
  "tracks": [
    {
      "channel": 0,
      "controlChanges": {
        "7": [
          {
            "number": 7,
            "ticks": 0,
            "time": 0,
            "value": 0.7874015748031497
          }
        ],
        "10": [
          {
            "number": 10,
            "ticks": 0,
            "time": 0,
            "value": 0.5039370078740157
          }
        ],
        "64": [
          {
            "number": 64,
            "ticks": 0,
            "time": 0,
            "value": 0
          }
        ],
        "91": [
          {
            "number": 91,
            "ticks": 0,
            "time": 0,
            "value": 0.1889763779527559
          }
        ],
        "121": [
          {
            "number": 121,
            "ticks": 0,
            "time": 0,
            "value": 0
          }
        ]
      },
      "pitchBends": [],
      "instrument": {
        "family": "piano",
        "number": 0,
        "name": "acoustic grand piano"
      },
      "name": "Piano",
      "notes": [
        {
          "duration": 0.6,
          "durationTicks": 960,
          "midi": 72,
          "name": "C5",
          "ticks": 0,
          "time": 0,
          "velocity": 0.6377952755905512
        },
        {
          "duration": 0.6,
          "durationTicks": 960,
          "midi": 69,
          "name": "A4",
          "ticks": 960,
          "time": 0.6,
          "velocity": 0.5905511811023622
        },
        {
          "duration": 0.5999999999999999,
          "durationTicks": 960,
          "midi": 72,
          "name": "C5",
          "ticks": 1920,
          "time": 1.2,
          "velocity": 0.6377952755905512
        },
        {
          "duration": 0.6000000000000001,
          "durationTicks": 960,
          "midi": 69,
          "name": "A4",
          "ticks": 2880,
          "time": 1.7999999999999998,
          "velocity": 0.5905511811023622
        },
        {
          "duration": 0.3000000000000007,
          "durationTicks": 480,
          "midi": 72,
          "name": "C5",
          "ticks": 15360,
          "time": 9.6,
          "velocity": 0.6377952755905512
        },
        {
          "duration": 0.29999999999999893,
          "durationTicks": 480,
          "midi": 69,
          "name": "A4",
          "ticks": 15840,
          "time": 9.9,
          "velocity": 0.5905511811023622
        },
        {
          "duration": 0.15000000000000036,
          "durationTicks": 240,
          "midi": 72,
          "name": "C5",
          "ticks": 19200,
          "time": 12,
          "velocity": 0.6377952755905512
        },
        {
          "duration": 0.14999999999999858,
          "durationTicks": 240,
          "midi": 69,
          "name": "A4",
          "ticks": 19440,
          "time": 12.15,
          "velocity": 0.5826771653543307
        },
        {
          "duration": 0.15000000000000036,
          "durationTicks": 240,
          "midi": 72,
          "name": "C5",
          "ticks": 19680,
          "time": 12.299999999999999,
          "velocity": 0.6141732283464567
        },
        {
          "duration": 0.15000000000000036,
          "durationTicks": 240,
          "midi": 69,
          "name": "A4",
          "ticks": 19920,
          "time": 12.45,
          "velocity": 0.5748031496062992
        },
        {
          "duration": 0.3000000000000007,
          "durationTicks": 480,
          "midi": 72,
          "name": "C5",
          "ticks": 23040,
          "time": 14.399999999999999,
          "velocity": 0.6377952755905512
        },
        {
          "duration": 1.200000000000001,
          "durationTicks": 1920,
          "midi": 69,
          "name": "A4",
          "ticks": 23040,
          "time": 14.399999999999999,
          "velocity": 0.6377952755905512
        },
        {
          "duration": 0.3000000000000007,
          "durationTicks": 480,
          "midi": 72,
          "name": "C5",
          "ticks": 23520,
          "time": 14.7,
          "velocity": 0.5984251968503937
        },
        {
          "duration": 0.29999999999999893,
          "durationTicks": 480,
          "midi": 72,
          "name": "C5",
          "ticks": 24000,
          "time": 15,
          "velocity": 0.5984251968503937
        },
        {
          "duration": 0.3000000000000007,
          "durationTicks": 480,
          "midi": 72,
          "name": "C5",
          "ticks": 24480,
          "time": 15.299999999999999,
          "velocity": 0.5984251968503937
        },
        {
          "duration": 1.200000000000001,
          "durationTicks": 1920,
          "midi": 72,
          "name": "C5",
          "ticks": 24960,
          "time": 15.6,
          "velocity": 0.6220472440944882
        },
        {
          "duration": 0.29999999999999893,
          "durationTicks": 480,
          "midi": 69,
          "name": "A4",
          "ticks": 24960,
          "time": 15.6,
          "velocity": 0.6220472440944882
        },
        {
          "duration": 0.3000000000000007,
          "durationTicks": 480,
          "midi": 69,
          "name": "A4",
          "ticks": 25440,
          "time": 15.899999999999999,
          "velocity": 0.5984251968503937
        },
        {
          "duration": 0.3000000000000007,
          "durationTicks": 480,
          "midi": 69,
          "name": "A4",
          "ticks": 25920,
          "time": 16.2,
          "velocity": 0.5984251968503937
        },
        {
          "duration": 0.3000000000000007,
          "durationTicks": 480,
          "midi": 69,
          "name": "A4",
          "ticks": 26400,
          "time": 16.5,
          "velocity": 0.5984251968503937
        }
      ],
      "endOfTrackTicks": 26881
    },
    {
      "channel": 1,
      "controlChanges": {
        "7": [
          {
            "number": 7,
            "ticks": 0,
            "time": 0,
            "value": 0.7874015748031497
          }
        ],
        "10": [
          {
            "number": 10,
            "ticks": 0,
            "time": 0,
            "value": 0.5039370078740157
          }
        ],
        "64": [
          {
            "number": 64,
            "ticks": 0,
            "time": 0,
            "value": 0
          }
        ],
        "91": [
          {
            "number": 91,
            "ticks": 0,
            "time": 0,
            "value": 0.1889763779527559
          }
        ],
        "121": [
          {
            "number": 121,
            "ticks": 0,
            "time": 0,
            "value": 0
          }
        ]
      },
      "pitchBends": [],
      "instrument": {
        "family": "piano",
        "number": 0,
        "name": "acoustic grand piano"
      },
      "name": "Piano",
      "notes": [
        {
          "duration": 0.6000000000000001,
          "durationTicks": 960,
          "midi": 72,
          "name": "C5",
          "ticks": 3840,
          "time": 2.4,
          "velocity": 0.6377952755905512
        },
        {
          "duration": 0.5999999999999996,
          "durationTicks": 960,
          "midi": 69,
          "name": "A4",
          "ticks": 4800,
          "time": 3,
          "velocity": 0.5905511811023622
        },
        {
          "duration": 0.6000000000000005,
          "durationTicks": 960,
          "midi": 72,
          "name": "C5",
          "ticks": 5760,
          "time": 3.5999999999999996,
          "velocity": 0.6377952755905512
        },
        {
          "duration": 0.5999999999999996,
          "durationTicks": 960,
          "midi": 69,
          "name": "A4",
          "ticks": 6720,
          "time": 4.2,
          "velocity": 0.5905511811023622
        },
        {
          "duration": 0.3000000000000007,
          "durationTicks": 480,
          "midi": 72,
          "name": "C5",
          "ticks": 16320,
          "time": 10.2,
          "velocity": 0.5984251968503937
        },
        {
          "duration": 0.29999999999999893,
          "durationTicks": 480,
          "midi": 69,
          "name": "A4",
          "ticks": 16800,
          "time": 10.5,
          "velocity": 0.5905511811023622
        },
        {
          "duration": 0.15000000000000036,
          "durationTicks": 240,
          "midi": 72,
          "name": "C5",
          "ticks": 20160,
          "time": 12.6,
          "velocity": 0.5984251968503937
        },
        {
          "duration": 0.15000000000000036,
          "durationTicks": 240,
          "midi": 69,
          "name": "A4",
          "ticks": 20400,
          "time": 12.75,
          "velocity": 0.5826771653543307
        },
        {
          "duration": 0.14999999999999858,
          "durationTicks": 240,
          "midi": 72,
          "name": "C5",
          "ticks": 20640,
          "time": 12.9,
          "velocity": 0.6141732283464567
        },
        {
          "duration": 0.15000000000000036,
          "durationTicks": 240,
          "midi": 69,
          "name": "A4",
          "ticks": 20880,
          "time": 13.049999999999999,
          "velocity": 0.5748031496062992
        },
        {
          "duration": 0.3000000000000007,
          "durationTicks": 480,
          "midi": 72,
          "name": "C5",
          "ticks": 23040,
          "time": 14.399999999999999,
          "velocity": 0.6456692913385826
        },
        {
          "duration": 1.200000000000001,
          "durationTicks": 1920,
          "midi": 69,
          "name": "A4",
          "ticks": 23040,
          "time": 14.399999999999999,
          "velocity": 0.6377952755905512
        },
        {
          "duration": 0.3000000000000007,
          "durationTicks": 480,
          "midi": 72,
          "name": "C5",
          "ticks": 23520,
          "time": 14.7,
          "velocity": 0.6062992125984252
        },
        {
          "duration": 0.29999999999999893,
          "durationTicks": 480,
          "midi": 72,
          "name": "C5",
          "ticks": 24000,
          "time": 15,
          "velocity": 0.6062992125984252
        },
        {
          "duration": 0.3000000000000007,
          "durationTicks": 480,
          "midi": 72,
          "name": "C5",
          "ticks": 24480,
          "time": 15.299999999999999,
          "velocity": 0.5984251968503937
        },
        {
          "duration": 1.200000000000001,
          "durationTicks": 1920,
          "midi": 72,
          "name": "C5",
          "ticks": 24960,
          "time": 15.6,
          "velocity": 0.6220472440944882
        },
        {
          "duration": 0.29999999999999893,
          "durationTicks": 480,
          "midi": 69,
          "name": "A4",
          "ticks": 24960,
          "time": 15.6,
          "velocity": 0.6220472440944882
        },
        {
          "duration": 0.3000000000000007,
          "durationTicks": 480,
          "midi": 69,
          "name": "A4",
          "ticks": 25440,
          "time": 15.899999999999999,
          "velocity": 0.5984251968503937
        },
        {
          "duration": 0.3000000000000007,
          "durationTicks": 480,
          "midi": 69,
          "name": "A4",
          "ticks": 25920,
          "time": 16.2,
          "velocity": 0.5984251968503937
        },
        {
          "duration": 0.3000000000000007,
          "durationTicks": 480,
          "midi": 69,
          "name": "A4",
          "ticks": 26400,
          "time": 16.5,
          "velocity": 0.5984251968503937
        }
      ],
      "endOfTrackTicks": 26881
    },
    {
      "channel": 2,
      "controlChanges": {
        "7": [
          {
            "number": 7,
            "ticks": 0,
            "time": 0,
            "value": 0.7874015748031497
          }
        ],
        "10": [
          {
            "number": 10,
            "ticks": 0,
            "time": 0,
            "value": 0.5039370078740157
          }
        ],
        "64": [
          {
            "number": 64,
            "ticks": 0,
            "time": 0,
            "value": 0
          }
        ],
        "91": [
          {
            "number": 91,
            "ticks": 0,
            "time": 0,
            "value": 0.1889763779527559
          }
        ],
        "121": [
          {
            "number": 121,
            "ticks": 0,
            "time": 0,
            "value": 0
          }
        ]
      },
      "pitchBends": [],
      "instrument": {
        "family": "piano",
        "number": 0,
        "name": "acoustic grand piano"
      },
      "name": "Piano",
      "notes": [
        {
          "duration": 0.5999999999999996,
          "durationTicks": 960,
          "midi": 72,
          "name": "C5",
          "ticks": 7680,
          "time": 4.8,
          "velocity": 0.6377952755905512
        },
        {
          "duration": 0.6000000000000005,
          "durationTicks": 960,
          "midi": 69,
          "name": "A4",
          "ticks": 8640,
          "time": 5.3999999999999995,
          "velocity": 0.5905511811023622
        },
        {
          "duration": 0.5999999999999996,
          "durationTicks": 960,
          "midi": 72,
          "name": "C5",
          "ticks": 9600,
          "time": 6,
          "velocity": 0.6377952755905512
        },
        {
          "duration": 0.5999999999999996,
          "durationTicks": 960,
          "midi": 69,
          "name": "A4",
          "ticks": 10560,
          "time": 6.6,
          "velocity": 0.5905511811023622
        },
        {
          "duration": 0.3000000000000007,
          "durationTicks": 480,
          "midi": 72,
          "name": "C5",
          "ticks": 17280,
          "time": 10.799999999999999,
          "velocity": 0.6220472440944882
        },
        {
          "duration": 0.3000000000000007,
          "durationTicks": 480,
          "midi": 69,
          "name": "A4",
          "ticks": 17760,
          "time": 11.1,
          "velocity": 0.5905511811023622
        },
        {
          "duration": 0.15000000000000036,
          "durationTicks": 240,
          "midi": 72,
          "name": "C5",
          "ticks": 21120,
          "time": 13.2,
          "velocity": 0.6220472440944882
        },
        {
          "duration": 0.15000000000000036,
          "durationTicks": 240,
          "midi": 69,
          "name": "A4",
          "ticks": 21360,
          "time": 13.35,
          "velocity": 0.5826771653543307
        },
        {
          "duration": 0.15000000000000036,
          "durationTicks": 240,
          "midi": 72,
          "name": "C5",
          "ticks": 21600,
          "time": 13.5,
          "velocity": 0.6141732283464567
        },
        {
          "duration": 0.14999999999999858,
          "durationTicks": 240,
          "midi": 69,
          "name": "A4",
          "ticks": 21840,
          "time": 13.65,
          "velocity": 0.5748031496062992
        },
        {
          "duration": 0.3000000000000007,
          "durationTicks": 480,
          "midi": 72,
          "name": "C5",
          "ticks": 23040,
          "time": 14.399999999999999,
          "velocity": 0.6535433070866141
        },
        {
          "duration": 1.200000000000001,
          "durationTicks": 1920,
          "midi": 69,
          "name": "A4",
          "ticks": 23040,
          "time": 14.399999999999999,
          "velocity": 0.6377952755905512
        },
        {
          "duration": 0.3000000000000007,
          "durationTicks": 480,
          "midi": 72,
          "name": "C5",
          "ticks": 23520,
          "time": 14.7,
          "velocity": 0.6141732283464567
        },
        {
          "duration": 0.29999999999999893,
          "durationTicks": 480,
          "midi": 72,
          "name": "C5",
          "ticks": 24000,
          "time": 15,
          "velocity": 0.6062992125984252
        },
        {
          "duration": 0.3000000000000007,
          "durationTicks": 480,
          "midi": 72,
          "name": "C5",
          "ticks": 24480,
          "time": 15.299999999999999,
          "velocity": 0.6062992125984252
        },
        {
          "duration": 1.200000000000001,
          "durationTicks": 1920,
          "midi": 72,
          "name": "C5",
          "ticks": 24960,
          "time": 15.6,
          "velocity": 0.6299212598425197
        },
        {
          "duration": 0.29999999999999893,
          "durationTicks": 480,
          "midi": 69,
          "name": "A4",
          "ticks": 24960,
          "time": 15.6,
          "velocity": 0.6220472440944882
        },
        {
          "duration": 0.3000000000000007,
          "durationTicks": 480,
          "midi": 69,
          "name": "A4",
          "ticks": 25440,
          "time": 15.899999999999999,
          "velocity": 0.5984251968503937
        },
        {
          "duration": 0.3000000000000007,
          "durationTicks": 480,
          "midi": 69,
          "name": "A4",
          "ticks": 25920,
          "time": 16.2,
          "velocity": 0.5984251968503937
        },
        {
          "duration": 0.3000000000000007,
          "durationTicks": 480,
          "midi": 69,
          "name": "A4",
          "ticks": 26400,
          "time": 16.5,
          "velocity": 0.5984251968503937
        }
      ],
      "endOfTrackTicks": 26881
    },
    {
      "channel": 3,
      "controlChanges": {
        "7": [
          {
            "number": 7,
            "ticks": 0,
            "time": 0,
            "value": 0.7874015748031497
          }
        ],
        "10": [
          {
            "number": 10,
            "ticks": 0,
            "time": 0,
            "value": 0.5039370078740157
          }
        ],
        "64": [
          {
            "number": 64,
            "ticks": 0,
            "time": 0,
            "value": 0
          }
        ],
        "91": [
          {
            "number": 91,
            "ticks": 0,
            "time": 0,
            "value": 0.1889763779527559
          }
        ],
        "121": [
          {
            "number": 121,
            "ticks": 0,
            "time": 0,
            "value": 0
          }
        ]
      },
      "pitchBends": [],
      "instrument": {
        "family": "piano",
        "number": 0,
        "name": "acoustic grand piano"
      },
      "name": "Piano",
      "notes": [
        {
          "duration": 0.6000000000000005,
          "durationTicks": 960,
          "midi": 72,
          "name": "C5",
          "ticks": 11520,
          "time": 7.199999999999999,
          "velocity": 0.6377952755905512
        },
        {
          "duration": 0.6000000000000005,
          "durationTicks": 960,
          "midi": 69,
          "name": "A4",
          "ticks": 12480,
          "time": 7.8,
          "velocity": 0.5905511811023622
        },
        {
          "duration": 0.5999999999999996,
          "durationTicks": 960,
          "midi": 72,
          "name": "C5",
          "ticks": 13440,
          "time": 8.4,
          "velocity": 0.6377952755905512
        },
        {
          "duration": 0.5999999999999996,
          "durationTicks": 960,
          "midi": 69,
          "name": "A4",
          "ticks": 14400,
          "time": 9,
          "velocity": 0.5905511811023622
        },
        {
          "duration": 0.29999999999999893,
          "durationTicks": 480,
          "midi": 72,
          "name": "C5",
          "ticks": 18240,
          "time": 11.4,
          "velocity": 0.5984251968503937
        },
        {
          "duration": 0.3000000000000007,
          "durationTicks": 480,
          "midi": 69,
          "name": "A4",
          "ticks": 18720,
          "time": 11.7,
          "velocity": 0.5905511811023622
        },
        {
          "duration": 0.29999999999999893,
          "durationTicks": 480,
          "midi": 72,
          "name": "C5",
          "ticks": 19200,
          "time": 12,
          "velocity": 0.6535433070866141
        },
        {
          "duration": 0.3000000000000007,
          "durationTicks": 480,
          "midi": 69,
          "name": "A4",
          "ticks": 19680,
          "time": 12.299999999999999,
          "velocity": 0.5826771653543307
        },
        {
          "duration": 0.3000000000000007,
          "durationTicks": 480,
          "midi": 69,
          "name": "A4",
          "ticks": 20160,
          "time": 12.6,
          "velocity": 0.5826771653543307
        },
        {
          "duration": 0.29999999999999893,
          "durationTicks": 480,
          "midi": 72,
          "name": "C5",
          "ticks": 20640,
          "time": 12.9,
          "velocity": 0.6299212598425197
        },
        {
          "duration": 0.15000000000000036,
          "durationTicks": 240,
          "midi": 69,
          "name": "A4",
          "ticks": 22080,
          "time": 13.799999999999999,
          "velocity": 0.5905511811023622
        },
        {
          "duration": 0.15000000000000036,
          "durationTicks": 240,
          "midi": 72,
          "name": "C5",
          "ticks": 22320,
          "time": 13.95,
          "velocity": 0.6220472440944882
        },
        {
          "duration": 0.15000000000000036,
          "durationTicks": 240,
          "midi": 69,
          "name": "A4",
          "ticks": 22560,
          "time": 14.1,
          "velocity": 0.5748031496062992
        },
        {
          "duration": 0.14999999999999858,
          "durationTicks": 240,
          "midi": 72,
          "name": "C5",
          "ticks": 22800,
          "time": 14.25,
          "velocity": 0.6299212598425197
        },
        {
          "duration": 0.3000000000000007,
          "durationTicks": 480,
          "midi": 72,
          "name": "C5",
          "ticks": 23040,
          "time": 14.399999999999999,
          "velocity": 0.6692913385826772
        },
        {
          "duration": 1.200000000000001,
          "durationTicks": 1920,
          "midi": 69,
          "name": "A4",
          "ticks": 23040,
          "time": 14.399999999999999,
          "velocity": 0.6377952755905512
        },
        {
          "duration": 0.3000000000000007,
          "durationTicks": 480,
          "midi": 72,
          "name": "C5",
          "ticks": 23520,
          "time": 14.7,
          "velocity": 0.6220472440944882
        },
        {
          "duration": 0.29999999999999893,
          "durationTicks": 480,
          "midi": 72,
          "name": "C5",
          "ticks": 24000,
          "time": 15,
          "velocity": 0.6141732283464567
        },
        {
          "duration": 0.3000000000000007,
          "durationTicks": 480,
          "midi": 72,
          "name": "C5",
          "ticks": 24480,
          "time": 15.299999999999999,
          "velocity": 0.6062992125984252
        },
        {
          "duration": 1.200000000000001,
          "durationTicks": 1920,
          "midi": 72,
          "name": "C5",
          "ticks": 24960,
          "time": 15.6,
          "velocity": 0.6299212598425197
        },
        {
          "duration": 0.29999999999999893,
          "durationTicks": 480,
          "midi": 69,
          "name": "A4",
          "ticks": 24960,
          "time": 15.6,
          "velocity": 0.6220472440944882
        },
        {
          "duration": 0.3000000000000007,
          "durationTicks": 480,
          "midi": 69,
          "name": "A4",
          "ticks": 25440,
          "time": 15.899999999999999,
          "velocity": 0.5984251968503937
        },
        {
          "duration": 0.3000000000000007,
          "durationTicks": 480,
          "midi": 69,
          "name": "A4",
          "ticks": 25920,
          "time": 16.2,
          "velocity": 0.5984251968503937
        },
        {
          "duration": 0.3000000000000007,
          "durationTicks": 480,
          "midi": 69,
          "name": "A4",
          "ticks": 26400,
          "time": 16.5,
          "velocity": 0.5984251968503937
        }
      ],
      "endOfTrackTicks": 26881
    }
  ]
}