let score = {
  "soprano": [
    {
      "duration": 0.5,
      "durationTicks": 480,
      "midi": 61,
      "name": "C#4",
      "ticks": 15360,
      "time": 16,
      "velocity": 0.5984251968503937
    },
    {
      "duration": 0.5,
      "durationTicks": 480,
      "midi": 60,
      "name": "C4",
      "ticks": 16320,
      "time": 17,
      "velocity": 0.6141732283464567
    },
    {
      "duration": 0.5,
      "durationTicks": 480,
      "midi": 61,
      "name": "C#4",
      "ticks": 17280,
      "time": 18,
      "velocity": 0.6141732283464567
    },
    {
      "duration": 0.5,
      "durationTicks": 480,
      "midi": 60,
      "name": "C4",
      "ticks": 18240,
      "time": 19,
      "velocity": 0.5905511811023622
    },
    {
      "duration": 0.5,
      "durationTicks": 480,
      "midi": 61,
      "name": "C#4",
      "ticks": 19200,
      "time": 20,
      "velocity": 0.5748031496062992
    },
    {
      "duration": 0.5,
      "durationTicks": 480,
      "midi": 60,
      "name": "C4",
      "ticks": 20160,
      "time": 21,
      "velocity": 0.6141732283464567
    },
    {
      "duration": 0.5,
      "durationTicks": 480,
      "midi": 61,
      "name": "C#4",
      "ticks": 21120,
      "time": 22,
      "velocity": 0.5905511811023622
    },
    {
      "duration": 0.5,
      "durationTicks": 480,
      "midi": 60,
      "name": "C4",
      "ticks": 22080,
      "time": 23,
      "velocity": 0.5984251968503937
    },
    {
      "duration": 0.5,
      "durationTicks": 480,
      "midi": 61,
      "name": "C#4",
      "ticks": 23040,
      "time": 24,
      "velocity": 0.6062992125984252
    },
    {
      "duration": 0.5,
      "durationTicks": 480,
      "midi": 60,
      "name": "C4",
      "ticks": 24000,
      "time": 25,
      "velocity": 0.6141732283464567
    },
    {
      "duration": 0.5,
      "durationTicks": 480,
      "midi": 61,
      "name": "C#4",
      "ticks": 24960,
      "time": 26,
      "velocity": 0.5748031496062992
    },
    {
      "duration": 0.5,
      "durationTicks": 480,
      "midi": 60,
      "name": "C4",
      "ticks": 25920,
      "time": 27,
      "velocity": 0.6220472440944882
    },
    {
      "duration": 0.5,
      "durationTicks": 480,
      "midi": 61,
      "name": "C#4",
      "ticks": 26880,
      "time": 28,
      "velocity": 0.6062992125984252
    },
    {
      "duration": 0.5,
      "durationTicks": 480,
      "midi": 60,
      "name": "C4",
      "ticks": 27840,
      "time": 29,
      "velocity": 0.5669291338582677
    },
    {
      "duration": 0.5,
      "durationTicks": 480,
      "midi": 61,
      "name": "C#4",
      "ticks": 28800,
      "time": 30,
      "velocity": 0.6377952755905512
    },
    {
      "duration": 0.5,
      "durationTicks": 480,
      "midi": 60,
      "name": "C4",
      "ticks": 29280,
      "time": 30.5,
      "velocity": 0.6377952755905512
    },
    {
      "duration": 0.5,
      "durationTicks": 480,
      "midi": 61,
      "name": "C#4",
      "ticks": 29760,
      "time": 31,
      "velocity": 0.5905511811023622
    },
    {
      "duration": 0.5,
      "durationTicks": 480,
      "midi": 61,
      "name": "C#4",
      "ticks": 30720,
      "time": 32,
      "velocity": 0.6141732283464567
    },
    {
      "duration": 0.5,
      "durationTicks": 480,
      "midi": 60,
      "name": "C4",
      "ticks": 31200,
      "time": 32.5,
      "velocity": 0.6062992125984252
    },
    {
      "duration": 0.5,
      "durationTicks": 480,
      "midi": 61,
      "name": "C#4",
      "ticks": 31680,
      "time": 33,
      "velocity": 0.5984251968503937
    },
    {
      "duration": 0.5,
      "durationTicks": 480,
      "midi": 60,
      "name": "C4",
      "ticks": 32160,
      "time": 33.5,
      "velocity": 0.6220472440944882
    },
    {
      "duration": 0.5,
      "durationTicks": 480,
      "midi": 61,
      "name": "C#4",
      "ticks": 32640,
      "time": 34,
      "velocity": 0.5826771653543307
    },
    {
      "duration": 0.5,
      "durationTicks": 480,
      "midi": 60,
      "name": "C4",
      "ticks": 33120,
      "time": 34.5,
      "velocity": 0.6299212598425197
    },
    {
      "duration": 0.5,
      "durationTicks": 480,
      "midi": 61,
      "name": "C#4",
      "ticks": 33600,
      "time": 35,
      "velocity": 0.6299212598425197
    },
    {
      "duration": 0.5,
      "durationTicks": 480,
      "midi": 60,
      "name": "C4",
      "ticks": 34080,
      "time": 35.5,
      "velocity": 0.6062992125984252
    },
    {
      "duration": 0.5,
      "durationTicks": 480,
      "midi": 61,
      "name": "C#4",
      "ticks": 34560,
      "time": 36,
      "velocity": 0.5905511811023622
    },
    {
      "duration": 0.5,
      "durationTicks": 480,
      "midi": 60,
      "name": "C4",
      "ticks": 35040,
      "time": 36.5,
      "velocity": 0.5905511811023622
    },
    {
      "duration": 0.25,
      "durationTicks": 240,
      "midi": 61,
      "name": "C#4",
      "ticks": 35520,
      "time": 37,
      "velocity": 0.6062992125984252
    },
    {
      "duration": 0.25,
      "durationTicks": 240,
      "midi": 60,
      "name": "C4",
      "ticks": 35760,
      "time": 37.25,
      "velocity": 0.5826771653543307
    },
    {
      "duration": 0.5,
      "durationTicks": 480,
      "midi": 61,
      "name": "C#4",
      "ticks": 36000,
      "time": 37.5,
      "velocity": 0.5984251968503937
    },
    {
      "duration": 0.5,
      "durationTicks": 480,
      "midi": 61,
      "name": "C#4",
      "ticks": 36480,
      "time": 38,
      "velocity": 0.6377952755905512
    },
    {
      "duration": 0.5,
      "durationTicks": 480,
      "midi": 60,
      "name": "C4",
      "ticks": 36960,
      "time": 38.5,
      "velocity": 0.6141732283464567
    },
    {
      "duration": 0.5,
      "durationTicks": 480,
      "midi": 61,
      "name": "C#4",
      "ticks": 37440,
      "time": 39,
      "velocity": 0.5748031496062992
    },
    {
      "duration": 0.5,
      "durationTicks": 480,
      "midi": 60,
      "name": "C4",
      "ticks": 37920,
      "time": 39.5,
      "velocity": 0.6062992125984252
    },
    {
      "duration": 0.5,
      "durationTicks": 480,
      "midi": 61,
      "name": "C#4",
      "ticks": 38400,
      "time": 40,
      "velocity": 0.6220472440944882
    },
    {
      "duration": 0.5,
      "durationTicks": 480,
      "midi": 60,
      "name": "C4",
      "ticks": 38880,
      "time": 40.5,
      "velocity": 0.6141732283464567
    },
    {
      "duration": 0.5,
      "durationTicks": 480,
      "midi": 61,
      "name": "C#4",
      "ticks": 39360,
      "time": 41,
      "velocity": 0.6062992125984252
    },
    {
      "duration": 0.5,
      "durationTicks": 480,
      "midi": 60,
      "name": "C4",
      "ticks": 39840,
      "time": 41.5,
      "velocity": 0.6062992125984252
    },
    {
      "duration": 0.5,
      "durationTicks": 480,
      "midi": 61,
      "name": "C#4",
      "ticks": 40320,
      "time": 42,
      "velocity": 0.5748031496062992
    },
    {
      "duration": 0.5,
      "durationTicks": 480,
      "midi": 60,
      "name": "C4",
      "ticks": 40800,
      "time": 42.5,
      "velocity": 0.6062992125984252
    },
    {
      "duration": 0.5,
      "durationTicks": 480,
      "midi": 61,
      "name": "C#4",
      "ticks": 41280,
      "time": 43,
      "velocity": 0.5748031496062992
    },
    {
      "duration": 0.5,
      "durationTicks": 480,
      "midi": 60,
      "name": "C4",
      "ticks": 41760,
      "time": 43.5,
      "velocity": 0.6062992125984252
    },
    {
      "duration": 0.5,
      "durationTicks": 480,
      "midi": 61,
      "name": "C#4",
      "ticks": 42240,
      "time": 44,
      "velocity": 0.6220472440944882
    },
    {
      "duration": 0.5,
      "durationTicks": 480,
      "midi": 60,
      "name": "C4",
      "ticks": 42720,
      "time": 44.5,
      "velocity": 0.5984251968503937
    },
    {
      "duration": 0.5,
      "durationTicks": 480,
      "midi": 61,
      "name": "C#4",
      "ticks": 43200,
      "time": 45,
      "velocity": 0.5984251968503937
    },
    {
      "duration": 0.5,
      "durationTicks": 480,
      "midi": 60,
      "name": "C4",
      "ticks": 43680,
      "time": 45.5,
      "velocity": 0.5905511811023622
    },
    {
      "duration": 0.25,
      "durationTicks": 240,
      "midi": 61,
      "name": "C#4",
      "ticks": 44160,
      "time": 46,
      "velocity": 0.6062992125984252
    },
    {
      "duration": 0.25,
      "durationTicks": 240,
      "midi": 60,
      "name": "C4",
      "ticks": 44400,
      "time": 46.25,
      "velocity": 0.5433070866141733
    },
    {
      "duration": 0.5,
      "durationTicks": 480,
      "midi": 61,
      "name": "C#4",
      "ticks": 44640,
      "time": 46.5,
      "velocity": 0.6377952755905512
    },
    {
      "duration": 0.25,
      "durationTicks": 240,
      "midi": 60,
      "name": "C4",
      "ticks": 45360,
      "time": 47.25,
      "velocity": 0.5905511811023622
    },
    {
      "duration": 0.25,
      "durationTicks": 240,
      "midi": 61,
      "name": "C#4",
      "ticks": 45600,
      "time": 47.5,
      "velocity": 0.5826771653543307
    },
    {
      "duration": 0.25,
      "durationTicks": 240,
      "midi": 60,
      "name": "C4",
      "ticks": 45840,
      "time": 47.75,
      "velocity": 0.5905511811023622
    },
    {
      "duration": 0.5,
      "durationTicks": 480,
      "midi": 61,
      "name": "C#4",
      "ticks": 46080,
      "time": 48,
      "velocity": 0.6377952755905512
    },
    {
      "duration": 0.5,
      "durationTicks": 480,
      "midi": 60,
      "name": "C4",
      "ticks": 46560,
      "time": 48.5,
      "velocity": 0.5826771653543307
    },
    {
      "duration": 0.5,
      "durationTicks": 480,
      "midi": 61,
      "name": "C#4",
      "ticks": 47040,
      "time": 49,
      "velocity": 0.5905511811023622
    },
    {
      "duration": 0.5,
      "durationTicks": 480,
      "midi": 60,
      "name": "C4",
      "ticks": 47520,
      "time": 49.5,
      "velocity": 0.6062992125984252
    },
    {
      "duration": 1,
      "durationTicks": 960,
      "midi": 61,
      "name": "C#4",
      "ticks": 48000,
      "time": 50,
      "velocity": 0.6299212598425197
    },
    {
      "duration": 1,
      "durationTicks": 960,
      "midi": 60,
      "name": "C4",
      "ticks": 48960,
      "time": 51,
      "velocity": 0.5826771653543307
    },
    {
      "duration": 0.5,
      "durationTicks": 480,
      "midi": 61,
      "name": "C#4",
      "ticks": 49920,
      "time": 52,
      "velocity": 0.5748031496062992
    },
    {
      "duration": 0.5,
      "durationTicks": 480,
      "midi": 60,
      "name": "C4",
      "ticks": 50400,
      "time": 52.5,
      "velocity": 0.5748031496062992
    },
    {
      "duration": 0.5,
      "durationTicks": 480,
      "midi": 61,
      "name": "C#4",
      "ticks": 50880,
      "time": 53,
      "velocity": 0.6062992125984252
    },
    {
      "duration": 0.5,
      "durationTicks": 480,
      "midi": 60,
      "name": "C4",
      "ticks": 51360,
      "time": 53.5,
      "velocity": 0.6062992125984252
    },
    {
      "duration": 1,
      "durationTicks": 960,
      "midi": 61,
      "name": "C#4",
      "ticks": 51840,
      "time": 54,
      "velocity": 0.6299212598425197
    },
    {
      "duration": 1,
      "durationTicks": 960,
      "midi": 60,
      "name": "C4",
      "ticks": 52800,
      "time": 55,
      "velocity": 0.5669291338582677
    },
    {
      "duration": 0.5,
      "durationTicks": 480,
      "midi": 61,
      "name": "C#4",
      "ticks": 53760,
      "time": 56,
      "velocity": 0.6062992125984252
    },
    {
      "duration": 0.5,
      "durationTicks": 480,
      "midi": 60,
      "name": "C4",
      "ticks": 54240,
      "time": 56.5,
      "velocity": 0.6299212598425197
    },
    {
      "duration": 0.5,
      "durationTicks": 480,
      "midi": 61,
      "name": "C#4",
      "ticks": 54720,
      "time": 57,
      "velocity": 0.5748031496062992
    },
    {
      "duration": 0.5,
      "durationTicks": 480,
      "midi": 60,
      "name": "C4",
      "ticks": 55200,
      "time": 57.5,
      "velocity": 0.5905511811023622
    },
    {
      "duration": 1,
      "durationTicks": 960,
      "midi": 61,
      "name": "C#4",
      "ticks": 55680,
      "time": 58,
      "velocity": 0.6141732283464567
    },
    {
      "duration": 0.5,
      "durationTicks": 480,
      "midi": 60,
      "name": "C4",
      "ticks": 56640,
      "time": 59,
      "velocity": 0.6062992125984252
    },
    {
      "duration": 0.5,
      "durationTicks": 480,
      "midi": 61,
      "name": "C#4",
      "ticks": 57120,
      "time": 59.5,
      "velocity": 0.5826771653543307
    },
    {
      "duration": 1,
      "durationTicks": 960,
      "midi": 60,
      "name": "C4",
      "ticks": 57600,
      "time": 60,
      "velocity": 0.6141732283464567
    },
    {
      "duration": 1.5,
      "durationTicks": 1440,
      "midi": 61,
      "name": "C#4",
      "ticks": 58560,
      "time": 61,
      "velocity": 0.5905511811023622
    },
    {
      "duration": 0.5,
      "durationTicks": 480,
      "midi": 60,
      "name": "C4",
      "ticks": 60000,
      "time": 62.5,
      "velocity": 0.6062992125984252
    },
    {
      "duration": 0.5,
      "durationTicks": 480,
      "midi": 61,
      "name": "C#4",
      "ticks": 60480,
      "time": 63,
      "velocity": 0.5826771653543307
    },
    {
      "duration": 0.5,
      "durationTicks": 480,
      "midi": 60,
      "name": "C4",
      "ticks": 60960,
      "time": 63.5,
      "velocity": 0.5826771653543307
    },
    {
      "duration": 0.5,
      "durationTicks": 480,
      "midi": 61,
      "name": "C#4",
      "ticks": 61440,
      "time": 64,
      "velocity": 0.6062992125984252
    },
    {
      "duration": 0.5,
      "durationTicks": 480,
      "midi": 60,
      "name": "C4",
      "ticks": 61920,
      "time": 64.5,
      "velocity": 0.5826771653543307
    },
    {
      "duration": 0.5,
      "durationTicks": 480,
      "midi": 61,
      "name": "C#4",
      "ticks": 62400,
      "time": 65,
      "velocity": 0.5826771653543307
    },
    {
      "duration": 0.5,
      "durationTicks": 480,
      "midi": 60,
      "name": "C4",
      "ticks": 62880,
      "time": 65.5,
      "velocity": 0.5748031496062992
    },
    {
      "duration": 1,
      "durationTicks": 960,
      "midi": 61,
      "name": "C#4",
      "ticks": 63360,
      "time": 66,
      "velocity": 0.6062992125984252
    },
    {
      "duration": 0.5,
      "durationTicks": 480,
      "midi": 60,
      "name": "C4",
      "ticks": 64320,
      "time": 67,
      "velocity": 0.5826771653543307
    },
    {
      "duration": 0.5,
      "durationTicks": 480,
      "midi": 61,
      "name": "C#4",
      "ticks": 64800,
      "time": 67.5,
      "velocity": 0.5826771653543307
    },
    {
      "duration": 0.5,
      "durationTicks": 480,
      "midi": 60,
      "name": "C4",
      "ticks": 65280,
      "time": 68,
      "velocity": 0.6141732283464567
    },
    {
      "duration": 1.25,
      "durationTicks": 1200,
      "midi": 61,
      "name": "C#4",
      "ticks": 66240,
      "time": 69,
      "velocity": 0.6141732283464567
    },
    {
      "duration": 0.25,
      "durationTicks": 240,
      "midi": 60,
      "name": "C4",
      "ticks": 67440,
      "time": 70.25,
      "velocity": 0.6062992125984252
    },
    {
      "duration": 0.25,
      "durationTicks": 240,
      "midi": 61,
      "name": "C#4",
      "ticks": 67680,
      "time": 70.5,
      "velocity": 0.6299212598425197
    },
    {
      "duration": 1.25,
      "durationTicks": 1200,
      "midi": 60,
      "name": "C4",
      "ticks": 67920,
      "time": 70.75,
      "velocity": 0.5984251968503937
    },
    {
      "duration": 1.5,
      "durationTicks": 1440,
      "midi": 61,
      "name": "C#4",
      "ticks": 69120,
      "time": 72,
      "velocity": 0.6062992125984252
    },
    {
      "duration": 2.5,
      "durationTicks": 2400,
      "midi": 60,
      "name": "C4",
      "ticks": 70560,
      "time": 73.5,
      "velocity": 0.5984251968503937
    },
    {
      "duration": 0.5,
      "durationTicks": 480,
      "midi": 61,
      "name": "C#4",
      "ticks": 73440,
      "time": 76.5,
      "velocity": 0.5590551181102362
    },
    {
      "duration": 0.5,
      "durationTicks": 480,
      "midi": 60,
      "name": "C4",
      "ticks": 73920,
      "time": 77,
      "velocity": 0.6299212598425197
    },
    {
      "duration": 0.5,
      "durationTicks": 480,
      "midi": 61,
      "name": "C#4",
      "ticks": 74400,
      "time": 77.5,
      "velocity": 0.5984251968503937
    },
    {
      "duration": 0.25,
      "durationTicks": 240,
      "midi": 60,
      "name": "C4",
      "ticks": 75120,
      "time": 78.25,
      "velocity": 0.6141732283464567
    },
    {
      "duration": 0.25,
      "durationTicks": 240,
      "midi": 61,
      "name": "C#4",
      "ticks": 75360,
      "time": 78.5,
      "velocity": 0.6062992125984252
    },
    {
      "duration": 0.25,
      "durationTicks": 240,
      "midi": 60,
      "name": "C4",
      "ticks": 75600,
      "time": 78.75,
      "velocity": 0.6062992125984252
    },
    {
      "duration": 0.5,
      "durationTicks": 480,
      "midi": 61,
      "name": "C#4",
      "ticks": 75840,
      "time": 79,
      "velocity": 0.5826771653543307
    },
    {
      "duration": 0.5,
      "durationTicks": 480,
      "midi": 60,
      "name": "C4",
      "ticks": 76320,
      "time": 79.5,
      "velocity": 0.6141732283464567
    },
    {
      "duration": 0.25,
      "durationTicks": 240,
      "midi": 61,
      "name": "C#4",
      "ticks": 76800,
      "time": 80,
      "velocity": 0.5905511811023622
    },
    {
      "duration": 0.5,
      "durationTicks": 480,
      "midi": 60,
      "name": "C4",
      "ticks": 77040,
      "time": 80.25,
      "velocity": 0.5826771653543307
    },
    {
      "duration": 0.5,
      "durationTicks": 480,
      "midi": 61,
      "name": "C#4",
      "ticks": 77520,
      "time": 80.75,
      "velocity": 0.5511811023622047
    },
    {
      "duration": 0.5,
      "durationTicks": 480,
      "midi": 60,
      "name": "C4",
      "ticks": 78000,
      "time": 81.25,
      "velocity": 0.5826771653543307
    },
    {
      "duration": 0.75,
      "durationTicks": 720,
      "midi": 61,
      "name": "C#4",
      "ticks": 78480,
      "time": 81.75,
      "velocity": 0.5826771653543307
    },
    {
      "duration": 0.25,
      "durationTicks": 240,
      "midi": 61,
      "name": "C#4",
      "ticks": 79200,
      "time": 82.5,
      "velocity": 0.6299212598425197
    },
    {
      "duration": 0.25,
      "durationTicks": 240,
      "midi": 60,
      "name": "C4",
      "ticks": 79440,
      "time": 82.75,
      "velocity": 0.6535433070866141
    },
    {
      "duration": 0.5,
      "durationTicks": 480,
      "midi": 61,
      "name": "C#4",
      "ticks": 79680,
      "time": 83,
      "velocity": 0.6377952755905512
    },
    {
      "duration": 1.5,
      "durationTicks": 1440,
      "midi": 61,
      "name": "C#4",
      "ticks": 80640,
      "time": 84,
      "velocity": 0.6062992125984252
    },
    {
      "duration": 0.25,
      "durationTicks": 240,
      "midi": 60,
      "name": "C4",
      "ticks": 82080,
      "time": 85.5,
      "velocity": 0.6141732283464567
    },
    {
      "duration": 0.25,
      "durationTicks": 240,
      "midi": 61,
      "name": "C#4",
      "ticks": 82320,
      "time": 85.75,
      "velocity": 0.6299212598425197
    },
    {
      "duration": 0.25,
      "durationTicks": 240,
      "midi": 60,
      "name": "C4",
      "ticks": 82560,
      "time": 86,
      "velocity": 0.6141732283464567
    },
    {
      "duration": 0.25,
      "durationTicks": 240,
      "midi": 61,
      "name": "C#4",
      "ticks": 82800,
      "time": 86.25,
      "velocity": 0.6062992125984252
    },
    {
      "duration": 1.5,
      "durationTicks": 1440,
      "midi": 60,
      "name": "C4",
      "ticks": 83040,
      "time": 86.5,
      "velocity": 0.6141732283464567
    },
    {
      "duration": 0.25,
      "durationTicks": 240,
      "midi": 61,
      "name": "C#4",
      "ticks": 84480,
      "time": 88,
      "velocity": 0.5984251968503937
    },
    {
      "duration": 0.5,
      "durationTicks": 480,
      "midi": 60,
      "name": "C4",
      "ticks": 84720,
      "time": 88.25,
      "velocity": 0.5984251968503937
    },
    {
      "duration": 0.5,
      "durationTicks": 480,
      "midi": 61,
      "name": "C#4",
      "ticks": 85200,
      "time": 88.75,
      "velocity": 0.6220472440944882
    },
    {
      "duration": 0.5,
      "durationTicks": 480,
      "midi": 60,
      "name": "C4",
      "ticks": 85680,
      "time": 89.25,
      "velocity": 0.5905511811023622
    },
    {
      "duration": 0.75,
      "durationTicks": 720,
      "midi": 61,
      "name": "C#4",
      "ticks": 86160,
      "time": 89.75,
      "velocity": 0.6535433070866141
    },
    {
      "duration": 0.25,
      "durationTicks": 240,
      "midi": 60,
      "name": "C4",
      "ticks": 86880,
      "time": 90.5,
      "velocity": 0.5826771653543307
    },
    {
      "duration": 0.25,
      "durationTicks": 240,
      "midi": 61,
      "name": "C#4",
      "ticks": 87120,
      "time": 90.75,
      "velocity": 0.5984251968503937
    },
    {
      "duration": 0.5,
      "durationTicks": 480,
      "midi": 60,
      "name": "C4",
      "ticks": 87360,
      "time": 91,
      "velocity": 0.5905511811023622
    },
    {
      "duration": 0.5,
      "durationTicks": 480,
      "midi": 61,
      "name": "C#4",
      "ticks": 88800,
      "time": 92.5,
      "velocity": 0.5826771653543307
    },
    {
      "duration": 0.5,
      "durationTicks": 480,
      "midi": 60,
      "name": "C4",
      "ticks": 89280,
      "time": 93,
      "velocity": 0.6141732283464567
    },
    {
      "duration": 0.5,
      "durationTicks": 480,
      "midi": 61,
      "name": "C#4",
      "ticks": 89760,
      "time": 93.5,
      "velocity": 0.5748031496062992
    },
    {
      "duration": 0.25,
      "durationTicks": 240,
      "midi": 61,
      "name": "C#4",
      "ticks": 90480,
      "time": 94.25,
      "velocity": 0.6220472440944882
    },
    {
      "duration": 0.25,
      "durationTicks": 240,
      "midi": 60,
      "name": "C4",
      "ticks": 90720,
      "time": 94.5,
      "velocity": 0.5826771653543307
    },
    {
      "duration": 0.25,
      "durationTicks": 240,
      "midi": 61,
      "name": "C#4",
      "ticks": 90960,
      "time": 94.75,
      "velocity": 0.6299212598425197
    },
    {
      "duration": 0.25,
      "durationTicks": 240,
      "midi": 60,
      "name": "C4",
      "ticks": 91200,
      "time": 95,
      "velocity": 0.6141732283464567
    },
    {
      "duration": 0.25,
      "durationTicks": 240,
      "midi": 61,
      "name": "C#4",
      "ticks": 91440,
      "time": 95.25,
      "velocity": 0.6141732283464567
    },
    {
      "duration": 0.5,
      "durationTicks": 480,
      "midi": 60,
      "name": "C4",
      "ticks": 91680,
      "time": 95.5,
      "velocity": 0.6141732283464567
    }
  ],
  "alto": [
    {
      "duration": 0.5,
      "durationTicks": 480,
      "midi": 61,
      "name": "C#4",
      "ticks": 15360,
      "time": 16,
      "velocity": 0.5905511811023622
    },
    {
      "duration": 0.5,
      "durationTicks": 480,
      "midi": 60,
      "name": "C4",
      "ticks": 16320,
      "time": 17,
      "velocity": 0.5905511811023622
    },
    {
      "duration": 0.5,
      "durationTicks": 480,
      "midi": 61,
      "name": "C#4",
      "ticks": 17280,
      "time": 18,
      "velocity": 0.6141732283464567
    },
    {
      "duration": 0.5,
      "durationTicks": 480,
      "midi": 60,
      "name": "C4",
      "ticks": 18240,
      "time": 19,
      "velocity": 0.6456692913385826
    },
    {
      "duration": 0.5,
      "durationTicks": 480,
      "midi": 61,
      "name": "C#4",
      "ticks": 19200,
      "time": 20,
      "velocity": 0.5984251968503937
    },
    {
      "duration": 0.5,
      "durationTicks": 480,
      "midi": 60,
      "name": "C4",
      "ticks": 20160,
      "time": 21,
      "velocity": 0.6220472440944882
    },
    {
      "duration": 0.5,
      "durationTicks": 480,
      "midi": 61,
      "name": "C#4",
      "ticks": 21120,
      "time": 22,
      "velocity": 0.5669291338582677
    },
    {
      "duration": 0.5,
      "durationTicks": 480,
      "midi": 60,
      "name": "C4",
      "ticks": 22080,
      "time": 23,
      "velocity": 0.6456692913385826
    },
    {
      "duration": 0.5,
      "durationTicks": 480,
      "midi": 61,
      "name": "C#4",
      "ticks": 23040,
      "time": 24,
      "velocity": 0.5669291338582677
    },
    {
      "duration": 0.5,
      "durationTicks": 480,
      "midi": 60,
      "name": "C4",
      "ticks": 24000,
      "time": 25,
      "velocity": 0.5984251968503937
    },
    {
      "duration": 0.5,
      "durationTicks": 480,
      "midi": 61,
      "name": "C#4",
      "ticks": 24960,
      "time": 26,
      "velocity": 0.6141732283464567
    },
    {
      "duration": 0.5,
      "durationTicks": 480,
      "midi": 60,
      "name": "C4",
      "ticks": 25920,
      "time": 27,
      "velocity": 0.6220472440944882
    },
    {
      "duration": 0.5,
      "durationTicks": 480,
      "midi": 61,
      "name": "C#4",
      "ticks": 26880,
      "time": 28,
      "velocity": 0.6062992125984252
    },
    {
      "duration": 0.5,
      "durationTicks": 480,
      "midi": 60,
      "name": "C4",
      "ticks": 27840,
      "time": 29,
      "velocity": 0.5826771653543307
    },
    {
      "duration": 0.5,
      "durationTicks": 480,
      "midi": 61,
      "name": "C#4",
      "ticks": 28800,
      "time": 30,
      "velocity": 0.6141732283464567
    },
    {
      "duration": 0.5,
      "durationTicks": 480,
      "midi": 60,
      "name": "C4",
      "ticks": 29280,
      "time": 30.5,
      "velocity": 0.6062992125984252
    },
    {
      "duration": 0.5,
      "durationTicks": 480,
      "midi": 61,
      "name": "C#4",
      "ticks": 29760,
      "time": 31,
      "velocity": 0.5905511811023622
    },
    {
      "duration": 0.5,
      "durationTicks": 480,
      "midi": 61,
      "name": "C#4",
      "ticks": 30720,
      "time": 32,
      "velocity": 0.5984251968503937
    },
    {
      "duration": 0.5,
      "durationTicks": 480,
      "midi": 60,
      "name": "C4",
      "ticks": 31680,
      "time": 33,
      "velocity": 0.6220472440944882
    },
    {
      "duration": 0.5,
      "durationTicks": 480,
      "midi": 61,
      "name": "C#4",
      "ticks": 32640,
      "time": 34,
      "velocity": 0.6141732283464567
    },
    {
      "duration": 0.5,
      "durationTicks": 480,
      "midi": 60,
      "name": "C4",
      "ticks": 33600,
      "time": 35,
      "velocity": 0.5826771653543307
    },
    {
      "duration": 0.25,
      "durationTicks": 240,
      "midi": 61,
      "name": "C#4",
      "ticks": 34080,
      "time": 35.5,
      "velocity": 0.5826771653543307
    },
    {
      "duration": 0.25,
      "durationTicks": 240,
      "midi": 60,
      "name": "C4",
      "ticks": 34320,
      "time": 35.75,
      "velocity": 0.5984251968503937
    },
    {
      "duration": 0.5,
      "durationTicks": 480,
      "midi": 61,
      "name": "C#4",
      "ticks": 34560,
      "time": 36,
      "velocity": 0.5984251968503937
    },
    {
      "duration": 0.5,
      "durationTicks": 480,
      "midi": 60,
      "name": "C4",
      "ticks": 35040,
      "time": 36.5,
      "velocity": 0.6377952755905512
    },
    {
      "duration": 0.5,
      "durationTicks": 480,
      "midi": 61,
      "name": "C#4",
      "ticks": 35520,
      "time": 37,
      "velocity": 0.6062992125984252
    },
    {
      "duration": 0.5,
      "durationTicks": 480,
      "midi": 60,
      "name": "C4",
      "ticks": 36000,
      "time": 37.5,
      "velocity": 0.6377952755905512
    },
    {
      "duration": 0.5,
      "durationTicks": 480,
      "midi": 61,
      "name": "C#4",
      "ticks": 36480,
      "time": 38,
      "velocity": 0.5669291338582677
    },
    {
      "duration": 0.5,
      "durationTicks": 480,
      "midi": 60,
      "name": "C4",
      "ticks": 37920,
      "time": 39.5,
      "velocity": 0.5905511811023622
    },
    {
      "duration": 0.5,
      "durationTicks": 480,
      "midi": 61,
      "name": "C#4",
      "ticks": 38400,
      "time": 40,
      "velocity": 0.6141732283464567
    },
    {
      "duration": 0.5,
      "durationTicks": 480,
      "midi": 60,
      "name": "C4",
      "ticks": 39360,
      "time": 41,
      "velocity": 0.6299212598425197
    },
    {
      "duration": 0.5,
      "durationTicks": 480,
      "midi": 61,
      "name": "C#4",
      "ticks": 40320,
      "time": 42,
      "velocity": 0.5905511811023622
    },
    {
      "duration": 0.5,
      "durationTicks": 480,
      "midi": 60,
      "name": "C4",
      "ticks": 41280,
      "time": 43,
      "velocity": 0.6062992125984252
    },
    {
      "duration": 0.5,
      "durationTicks": 480,
      "midi": 61,
      "name": "C#4",
      "ticks": 42240,
      "time": 44,
      "velocity": 0.5905511811023622
    },
    {
      "duration": 0.5,
      "durationTicks": 480,
      "midi": 60,
      "name": "C4",
      "ticks": 43200,
      "time": 45,
      "velocity": 0.6062992125984252
    },
    {
      "duration": 0.5,
      "durationTicks": 480,
      "midi": 61,
      "name": "C#4",
      "ticks": 44160,
      "time": 46,
      "velocity": 0.5905511811023622
    },
    {
      "duration": 0.5,
      "durationTicks": 480,
      "midi": 61,
      "name": "C#4",
      "ticks": 45120,
      "time": 47,
      "velocity": 0.6062992125984252
    },
    {
      "duration": 0.5,
      "durationTicks": 480,
      "midi": 60,
      "name": "C4",
      "ticks": 45600,
      "time": 47.5,
      "velocity": 0.5905511811023622
    },
    {
      "duration": 1.5,
      "durationTicks": 1440,
      "midi": 60,
      "name": "C4",
      "ticks": 46560,
      "time": 48.5,
      "velocity": 0.5905511811023622
    },
    {
      "duration": 1,
      "durationTicks": 960,
      "midi": 61,
      "name": "C#4",
      "ticks": 48000,
      "time": 50,
      "velocity": 0.6220472440944882
    },
    {
      "duration": 1,
      "durationTicks": 960,
      "midi": 60,
      "name": "C4",
      "ticks": 48960,
      "time": 51,
      "velocity": 0.5826771653543307
    },
    {
      "duration": 1,
      "durationTicks": 960,
      "midi": 61,
      "name": "C#4",
      "ticks": 49920,
      "time": 52,
      "velocity": 0.6220472440944882
    },
    {
      "duration": 1,
      "durationTicks": 960,
      "midi": 60,
      "name": "C4",
      "ticks": 50880,
      "time": 53,
      "velocity": 0.5590551181102362
    },
    {
      "duration": 1,
      "durationTicks": 960,
      "midi": 61,
      "name": "C#4",
      "ticks": 51840,
      "time": 54,
      "velocity": 0.6141732283464567
    },
    {
      "duration": 1,
      "durationTicks": 960,
      "midi": 60,
      "name": "C4",
      "ticks": 52800,
      "time": 55,
      "velocity": 0.6220472440944882
    },
    {
      "duration": 1,
      "durationTicks": 960,
      "midi": 60,
      "name": "C4",
      "ticks": 54720,
      "time": 57,
      "velocity": 0.5748031496062992
    },
    {
      "duration": 1,
      "durationTicks": 960,
      "midi": 61,
      "name": "C#4",
      "ticks": 55680,
      "time": 58,
      "velocity": 0.6220472440944882
    },
    {
      "duration": 0.5,
      "durationTicks": 480,
      "midi": 60,
      "name": "C4",
      "ticks": 56640,
      "time": 59,
      "velocity": 0.5984251968503937
    },
    {
      "duration": 0.5,
      "durationTicks": 480,
      "midi": 61,
      "name": "C#4",
      "ticks": 57120,
      "time": 59.5,
      "velocity": 0.5669291338582677
    },
    {
      "duration": 1,
      "durationTicks": 960,
      "midi": 60,
      "name": "C4",
      "ticks": 57600,
      "time": 60,
      "velocity": 0.5669291338582677
    },
    {
      "duration": 1.5,
      "durationTicks": 1440,
      "midi": 61,
      "name": "C#4",
      "ticks": 58560,
      "time": 61,
      "velocity": 0.5905511811023622
    },
    {
      "duration": 0.5,
      "durationTicks": 480,
      "midi": 60,
      "name": "C4",
      "ticks": 60000,
      "time": 62.5,
      "velocity": 0.5748031496062992
    },
    {
      "duration": 0.5,
      "durationTicks": 480,
      "midi": 61,
      "name": "C#4",
      "ticks": 60480,
      "time": 63,
      "velocity": 0.5905511811023622
    },
    {
      "duration": 0.5,
      "durationTicks": 480,
      "midi": 60,
      "name": "C4",
      "ticks": 60960,
      "time": 63.5,
      "velocity": 0.5669291338582677
    },
    {
      "duration": 2.5,
      "durationTicks": 2400,
      "midi": 61,
      "name": "C#4",
      "ticks": 61920,
      "time": 64.5,
      "velocity": 0.6141732283464567
    },
    {
      "duration": 0.25,
      "durationTicks": 240,
      "midi": 60,
      "name": "C4",
      "ticks": 64320,
      "time": 67,
      "velocity": 0.5669291338582677
    },
    {
      "duration": 0.25,
      "durationTicks": 240,
      "midi": 61,
      "name": "C#4",
      "ticks": 64560,
      "time": 67.25,
      "velocity": 0.6220472440944882
    },
    {
      "duration": 0.25,
      "durationTicks": 240,
      "midi": 60,
      "name": "C4",
      "ticks": 64800,
      "time": 67.5,
      "velocity": 0.6062992125984252
    },
    {
      "duration": 0.25,
      "durationTicks": 240,
      "midi": 61,
      "name": "C#4",
      "ticks": 65040,
      "time": 67.75,
      "velocity": 0.5984251968503937
    },
    {
      "duration": 0.5,
      "durationTicks": 480,
      "midi": 60,
      "name": "C4",
      "ticks": 65280,
      "time": 68,
      "velocity": 0.5590551181102362
    },
    {
      "duration": 3,
      "durationTicks": 2880,
      "midi": 60,
      "name": "C4",
      "ticks": 66240,
      "time": 69,
      "velocity": 0.6220472440944882
    },
    {
      "duration": 1.5,
      "durationTicks": 1440,
      "midi": 61,
      "name": "C#4",
      "ticks": 69120,
      "time": 72,
      "velocity": 0.5984251968503937
    },
    {
      "duration": 1,
      "durationTicks": 960,
      "midi": 60,
      "name": "C4",
      "ticks": 70560,
      "time": 73.5,
      "velocity": 0.5826771653543307
    },
    {
      "duration": 0.5,
      "durationTicks": 480,
      "midi": 61,
      "name": "C#4",
      "ticks": 71520,
      "time": 74.5,
      "velocity": 0.5984251968503937
    },
    {
      "duration": 0.5,
      "durationTicks": 480,
      "midi": 60,
      "name": "C4",
      "ticks": 72000,
      "time": 75,
      "velocity": 0.5669291338582677
    },
    {
      "duration": 0.5,
      "durationTicks": 480,
      "midi": 61,
      "name": "C#4",
      "ticks": 72480,
      "time": 75.5,
      "velocity": 0.5511811023622047
    },
    {
      "duration": 1,
      "durationTicks": 960,
      "midi": 60,
      "name": "C4",
      "ticks": 72960,
      "time": 76,
      "velocity": 0.6062992125984252
    },
    {
      "duration": 0.5,
      "durationTicks": 480,
      "midi": 61,
      "name": "C#4",
      "ticks": 73920,
      "time": 77,
      "velocity": 0.5669291338582677
    },
    {
      "duration": 0.5,
      "durationTicks": 480,
      "midi": 60,
      "name": "C4",
      "ticks": 74400,
      "time": 77.5,
      "velocity": 0.6377952755905512
    },
    {
      "duration": 0.25,
      "durationTicks": 240,
      "midi": 61,
      "name": "C#4",
      "ticks": 75120,
      "time": 78.25,
      "velocity": 0.6141732283464567
    },
    {
      "duration": 0.25,
      "durationTicks": 240,
      "midi": 60,
      "name": "C4",
      "ticks": 75360,
      "time": 78.5,
      "velocity": 0.6062992125984252
    },
    {
      "duration": 0.25,
      "durationTicks": 240,
      "midi": 61,
      "name": "C#4",
      "ticks": 75600,
      "time": 78.75,
      "velocity": 0.6456692913385826
    },
    {
      "duration": 0.5,
      "durationTicks": 480,
      "midi": 60,
      "name": "C4",
      "ticks": 75840,
      "time": 79,
      "velocity": 0.5669291338582677
    },
    {
      "duration": 0.5,
      "durationTicks": 480,
      "midi": 61,
      "name": "C#4",
      "ticks": 76320,
      "time": 79.5,
      "velocity": 0.5905511811023622
    },
    {
      "duration": 0.25,
      "durationTicks": 240,
      "midi": 61,
      "name": "C#4",
      "ticks": 76800,
      "time": 80,
      "velocity": 0.6141732283464567
    },
    {
      "duration": 0.25,
      "durationTicks": 240,
      "midi": 60,
      "name": "C4",
      "ticks": 77040,
      "time": 80.25,
      "velocity": 0.5984251968503937
    },
    {
      "duration": 1,
      "durationTicks": 960,
      "midi": 61,
      "name": "C#4",
      "ticks": 77280,
      "time": 80.5,
      "velocity": 0.5984251968503937
    },
    {
      "duration": 0.25,
      "durationTicks": 240,
      "midi": 60,
      "name": "C4",
      "ticks": 78240,
      "time": 81.5,
      "velocity": 0.6062992125984252
    },
    {
      "duration": 0.25,
      "durationTicks": 240,
      "midi": 61,
      "name": "C#4",
      "ticks": 78480,
      "time": 81.75,
      "velocity": 0.6220472440944882
    },
    {
      "duration": 0.25,
      "durationTicks": 240,
      "midi": 61,
      "name": "C#4",
      "ticks": 78960,
      "time": 82.25,
      "velocity": 0.5669291338582677
    },
    {
      "duration": 1.5,
      "durationTicks": 1440,
      "midi": 60,
      "name": "C4",
      "ticks": 79200,
      "time": 82.5,
      "velocity": 0.5748031496062992
    },
    {
      "duration": 0.25,
      "durationTicks": 240,
      "midi": 61,
      "name": "C#4",
      "ticks": 80640,
      "time": 84,
      "velocity": 0.6220472440944882
    },
    {
      "duration": 0.25,
      "durationTicks": 240,
      "midi": 60,
      "name": "C4",
      "ticks": 80880,
      "time": 84.25,
      "velocity": 0.6141732283464567
    },
    {
      "duration": 0.25,
      "durationTicks": 240,
      "midi": 61,
      "name": "C#4",
      "ticks": 81120,
      "time": 84.5,
      "velocity": 0.5748031496062992
    },
    {
      "duration": 0.25,
      "durationTicks": 240,
      "midi": 60,
      "name": "C4",
      "ticks": 81360,
      "time": 84.75,
      "velocity": 0.6062992125984252
    },
    {
      "duration": 1,
      "durationTicks": 960,
      "midi": 61,
      "name": "C#4",
      "ticks": 81600,
      "time": 85,
      "velocity": 0.5905511811023622
    },
    {
      "duration": 0.75,
      "durationTicks": 720,
      "midi": 60,
      "name": "C4",
      "ticks": 82560,
      "time": 86,
      "velocity": 0.6220472440944882
    },
    {
      "duration": 0.25,
      "durationTicks": 240,
      "midi": 61,
      "name": "C#4",
      "ticks": 83280,
      "time": 86.75,
      "velocity": 0.5905511811023622
    },
    {
      "duration": 0.25,
      "durationTicks": 240,
      "midi": 60,
      "name": "C4",
      "ticks": 83520,
      "time": 87,
      "velocity": 0.5826771653543307
    },
    {
      "duration": 0.25,
      "durationTicks": 240,
      "midi": 61,
      "name": "C#4",
      "ticks": 83760,
      "time": 87.25,
      "velocity": 0.6141732283464567
    },
    {
      "duration": 0.5,
      "durationTicks": 480,
      "midi": 60,
      "name": "C4",
      "ticks": 84000,
      "time": 87.5,
      "velocity": 0.6299212598425197
    },
    {
      "duration": 0.25,
      "durationTicks": 240,
      "midi": 61,
      "name": "C#4",
      "ticks": 84480,
      "time": 88,
      "velocity": 0.6299212598425197
    },
    {
      "duration": 0.5,
      "durationTicks": 480,
      "midi": 60,
      "name": "C4",
      "ticks": 84720,
      "time": 88.25,
      "velocity": 0.5984251968503937
    },
    {
      "duration": 0.5,
      "durationTicks": 480,
      "midi": 61,
      "name": "C#4",
      "ticks": 85200,
      "time": 88.75,
      "velocity": 0.5984251968503937
    },
    {
      "duration": 0.5,
      "durationTicks": 480,
      "midi": 60,
      "name": "C4",
      "ticks": 85680,
      "time": 89.25,
      "velocity": 0.5905511811023622
    },
    {
      "duration": 0.75,
      "durationTicks": 720,
      "midi": 61,
      "name": "C#4",
      "ticks": 86160,
      "time": 89.75,
      "velocity": 0.5748031496062992
    },
    {
      "duration": 0.25,
      "durationTicks": 240,
      "midi": 60,
      "name": "C4",
      "ticks": 86880,
      "time": 90.5,
      "velocity": 0.5905511811023622
    },
    {
      "duration": 0.25,
      "durationTicks": 240,
      "midi": 61,
      "name": "C#4",
      "ticks": 87120,
      "time": 90.75,
      "velocity": 0.5748031496062992
    },
    {
      "duration": 0.5,
      "durationTicks": 480,
      "midi": 60,
      "name": "C4",
      "ticks": 87360,
      "time": 91,
      "velocity": 0.5984251968503937
    },
    {
      "duration": 0.5,
      "durationTicks": 480,
      "midi": 61,
      "name": "C#4",
      "ticks": 88800,
      "time": 92.5,
      "velocity": 0.6062992125984252
    },
    {
      "duration": 0.5,
      "durationTicks": 480,
      "midi": 60,
      "name": "C4",
      "ticks": 89280,
      "time": 93,
      "velocity": 0.5905511811023622
    },
    {
      "duration": 0.5,
      "durationTicks": 480,
      "midi": 61,
      "name": "C#4",
      "ticks": 89760,
      "time": 93.5,
      "velocity": 0.5511811023622047
    },
    {
      "duration": 0.25,
      "durationTicks": 240,
      "midi": 61,
      "name": "C#4",
      "ticks": 90480,
      "time": 94.25,
      "velocity": 0.5984251968503937
    },
    {
      "duration": 0.25,
      "durationTicks": 240,
      "midi": 60,
      "name": "C4",
      "ticks": 90720,
      "time": 94.5,
      "velocity": 0.5905511811023622
    },
    {
      "duration": 0.25,
      "durationTicks": 240,
      "midi": 61,
      "name": "C#4",
      "ticks": 90960,
      "time": 94.75,
      "velocity": 0.5748031496062992
    },
    {
      "duration": 0.25,
      "durationTicks": 240,
      "midi": 60,
      "name": "C4",
      "ticks": 91200,
      "time": 95,
      "velocity": 0.5748031496062992
    },
    {
      "duration": 0.25,
      "durationTicks": 240,
      "midi": 61,
      "name": "C#4",
      "ticks": 91440,
      "time": 95.25,
      "velocity": 0.5905511811023622
    },
    {
      "duration": 0.5,
      "durationTicks": 480,
      "midi": 60,
      "name": "C4",
      "ticks": 91680,
      "time": 95.5,
      "velocity": 0.5984251968503937
    }
  ],
  "tenor": [
    {
      "duration": 0.5,
      "durationTicks": 480,
      "midi": 61,
      "name": "C#4",
      "ticks": 15360,
      "time": 16,
      "velocity": 0.6220472440944882
    },
    {
      "duration": 0.5,
      "durationTicks": 480,
      "midi": 60,
      "name": "C4",
      "ticks": 16320,
      "time": 17,
      "velocity": 0.6062992125984252
    },
    {
      "duration": 0.5,
      "durationTicks": 480,
      "midi": 61,
      "name": "C#4",
      "ticks": 17280,
      "time": 18,
      "velocity": 0.5984251968503937
    },
    {
      "duration": 0.5,
      "durationTicks": 480,
      "midi": 60,
      "name": "C4",
      "ticks": 18240,
      "time": 19,
      "velocity": 0.6062992125984252
    },
    {
      "duration": 0.5,
      "durationTicks": 480,
      "midi": 61,
      "name": "C#4",
      "ticks": 19200,
      "time": 20,
      "velocity": 0.6062992125984252
    },
    {
      "duration": 0.5,
      "durationTicks": 480,
      "midi": 60,
      "name": "C4",
      "ticks": 20160,
      "time": 21,
      "velocity": 0.5984251968503937
    },
    {
      "duration": 0.5,
      "durationTicks": 480,
      "midi": 61,
      "name": "C#4",
      "ticks": 21120,
      "time": 22,
      "velocity": 0.5905511811023622
    },
    {
      "duration": 0.5,
      "durationTicks": 480,
      "midi": 60,
      "name": "C4",
      "ticks": 22080,
      "time": 23,
      "velocity": 0.5748031496062992
    },
    {
      "duration": 0.5,
      "durationTicks": 480,
      "midi": 61,
      "name": "C#4",
      "ticks": 23040,
      "time": 24,
      "velocity": 0.6141732283464567
    },
    {
      "duration": 0.5,
      "durationTicks": 480,
      "midi": 60,
      "name": "C4",
      "ticks": 24000,
      "time": 25,
      "velocity": 0.5905511811023622
    },
    {
      "duration": 0.5,
      "durationTicks": 480,
      "midi": 61,
      "name": "C#4",
      "ticks": 24960,
      "time": 26,
      "velocity": 0.5748031496062992
    },
    {
      "duration": 0.5,
      "durationTicks": 480,
      "midi": 60,
      "name": "C4",
      "ticks": 25920,
      "time": 27,
      "velocity": 0.5826771653543307
    },
    {
      "duration": 0.5,
      "durationTicks": 480,
      "midi": 61,
      "name": "C#4",
      "ticks": 26880,
      "time": 28,
      "velocity": 0.5748031496062992
    },
    {
      "duration": 0.5,
      "durationTicks": 480,
      "midi": 60,
      "name": "C4",
      "ticks": 27840,
      "time": 29,
      "velocity": 0.6062992125984252
    },
    {
      "duration": 0.5,
      "durationTicks": 480,
      "midi": 61,
      "name": "C#4",
      "ticks": 28800,
      "time": 30,
      "velocity": 0.6141732283464567
    },
    {
      "duration": 0.5,
      "durationTicks": 480,
      "midi": 60,
      "name": "C4",
      "ticks": 29280,
      "time": 30.5,
      "velocity": 0.5669291338582677
    },
    {
      "duration": 0.5,
      "durationTicks": 480,
      "midi": 61,
      "name": "C#4",
      "ticks": 29760,
      "time": 31,
      "velocity": 0.6062992125984252
    },
    {
      "duration": 1,
      "durationTicks": 960,
      "midi": 61,
      "name": "C#4",
      "ticks": 30720,
      "time": 32,
      "velocity": 0.5905511811023622
    },
    {
      "duration": 0.5,
      "durationTicks": 480,
      "midi": 60,
      "name": "C4",
      "ticks": 31680,
      "time": 33,
      "velocity": 0.6456692913385826
    },
    {
      "duration": 0.5,
      "durationTicks": 480,
      "midi": 61,
      "name": "C#4",
      "ticks": 32160,
      "time": 33.5,
      "velocity": 0.5984251968503937
    },
    {
      "duration": 1,
      "durationTicks": 960,
      "midi": 61,
      "name": "C#4",
      "ticks": 32640,
      "time": 34,
      "velocity": 0.6062992125984252
    },
    {
      "duration": 0.5,
      "durationTicks": 480,
      "midi": 60,
      "name": "C4",
      "ticks": 33600,
      "time": 35,
      "velocity": 0.5905511811023622
    },
    {
      "duration": 0.5,
      "durationTicks": 480,
      "midi": 61,
      "name": "C#4",
      "ticks": 34080,
      "time": 35.5,
      "velocity": 0.5826771653543307
    },
    {
      "duration": 0.5,
      "durationTicks": 480,
      "midi": 61,
      "name": "C#4",
      "ticks": 34560,
      "time": 36,
      "velocity": 0.5905511811023622
    },
    {
      "duration": 0.5,
      "durationTicks": 480,
      "midi": 60,
      "name": "C4",
      "ticks": 35040,
      "time": 36.5,
      "velocity": 0.5905511811023622
    },
    {
      "duration": 0.5,
      "durationTicks": 480,
      "midi": 61,
      "name": "C#4",
      "ticks": 35520,
      "time": 37,
      "velocity": 0.5984251968503937
    },
    {
      "duration": 0.5,
      "durationTicks": 480,
      "midi": 60,
      "name": "C4",
      "ticks": 36000,
      "time": 37.5,
      "velocity": 0.5669291338582677
    },
    {
      "duration": 0.25,
      "durationTicks": 240,
      "midi": 60,
      "name": "C4",
      "ticks": 36720,
      "time": 38.25,
      "velocity": 0.5984251968503937
    },
    {
      "duration": 0.25,
      "durationTicks": 240,
      "midi": 61,
      "name": "C#4",
      "ticks": 36960,
      "time": 38.5,
      "velocity": 0.6062992125984252
    },
    {
      "duration": 0.25,
      "durationTicks": 240,
      "midi": 60,
      "name": "C4",
      "ticks": 37200,
      "time": 38.75,
      "velocity": 0.6299212598425197
    },
    {
      "duration": 0.25,
      "durationTicks": 240,
      "midi": 61,
      "name": "C#4",
      "ticks": 37440,
      "time": 39,
      "velocity": 0.5905511811023622
    },
    {
      "duration": 0.25,
      "durationTicks": 240,
      "midi": 60,
      "name": "C4",
      "ticks": 37680,
      "time": 39.25,
      "velocity": 0.6062992125984252
    },
    {
      "duration": 2.5,
      "durationTicks": 2400,
      "midi": 61,
      "name": "C#4",
      "ticks": 38400,
      "time": 40,
      "velocity": 0.5905511811023622
    },
    {
      "duration": 0.5,
      "durationTicks": 480,
      "midi": 60,
      "name": "C4",
      "ticks": 40800,
      "time": 42.5,
      "velocity": 0.6220472440944882
    },
    {
      "duration": 0.5,
      "durationTicks": 480,
      "midi": 61,
      "name": "C#4",
      "ticks": 41280,
      "time": 43,
      "velocity": 0.5669291338582677
    },
    {
      "duration": 0.5,
      "durationTicks": 480,
      "midi": 60,
      "name": "C4",
      "ticks": 41760,
      "time": 43.5,
      "velocity": 0.6377952755905512
    },
    {
      "duration": 0.5,
      "durationTicks": 480,
      "midi": 61,
      "name": "C#4",
      "ticks": 42240,
      "time": 44,
      "velocity": 0.5826771653543307
    },
    {
      "duration": 1.5,
      "durationTicks": 1440,
      "midi": 60,
      "name": "C4",
      "ticks": 42720,
      "time": 44.5,
      "velocity": 0.5748031496062992
    },
    {
      "duration": 0.5,
      "durationTicks": 480,
      "midi": 61,
      "name": "C#4",
      "ticks": 44160,
      "time": 46,
      "velocity": 0.5905511811023622
    },
    {
      "duration": 0.5,
      "durationTicks": 480,
      "midi": 60,
      "name": "C4",
      "ticks": 44640,
      "time": 46.5,
      "velocity": 0.5748031496062992
    },
    {
      "duration": 0.25,
      "durationTicks": 240,
      "midi": 61,
      "name": "C#4",
      "ticks": 45600,
      "time": 47.5,
      "velocity": 0.5905511811023622
    },
    {
      "duration": 0.25,
      "durationTicks": 240,
      "midi": 60,
      "name": "C4",
      "ticks": 45840,
      "time": 47.75,
      "velocity": 0.6377952755905512
    },
    {
      "duration": 0.5,
      "durationTicks": 480,
      "midi": 61,
      "name": "C#4",
      "ticks": 46080,
      "time": 48,
      "velocity": 0.5905511811023622
    },
    {
      "duration": 0.5,
      "durationTicks": 480,
      "midi": 60,
      "name": "C4",
      "ticks": 46560,
      "time": 48.5,
      "velocity": 0.5433070866141733
    },
    {
      "duration": 0.5,
      "durationTicks": 480,
      "midi": 61,
      "name": "C#4",
      "ticks": 47040,
      "time": 49,
      "velocity": 0.5905511811023622
    },
    {
      "duration": 0.5,
      "durationTicks": 480,
      "midi": 60,
      "name": "C4",
      "ticks": 47520,
      "time": 49.5,
      "velocity": 0.6062992125984252
    },
    {
      "duration": 1,
      "durationTicks": 960,
      "midi": 61,
      "name": "C#4",
      "ticks": 48000,
      "time": 50,
      "velocity": 0.6299212598425197
    },
    {
      "duration": 1,
      "durationTicks": 960,
      "midi": 60,
      "name": "C4",
      "ticks": 48960,
      "time": 51,
      "velocity": 0.5826771653543307
    },
    {
      "duration": 1,
      "durationTicks": 960,
      "midi": 61,
      "name": "C#4",
      "ticks": 49920,
      "time": 52,
      "velocity": 0.5748031496062992
    },
    {
      "duration": 1,
      "durationTicks": 960,
      "midi": 60,
      "name": "C4",
      "ticks": 50880,
      "time": 53,
      "velocity": 0.5590551181102362
    },
    {
      "duration": 1,
      "durationTicks": 960,
      "midi": 61,
      "name": "C#4",
      "ticks": 51840,
      "time": 54,
      "velocity": 0.6062992125984252
    },
    {
      "duration": 1,
      "durationTicks": 960,
      "midi": 60,
      "name": "C4",
      "ticks": 52800,
      "time": 55,
      "velocity": 0.5905511811023622
    },
    {
      "duration": 1.5,
      "durationTicks": 1440,
      "midi": 60,
      "name": "C4",
      "ticks": 54240,
      "time": 56.5,
      "velocity": 0.6062992125984252
    },
    {
      "duration": 2,
      "durationTicks": 1920,
      "midi": 61,
      "name": "C#4",
      "ticks": 55680,
      "time": 58,
      "velocity": 0.5905511811023622
    },
    {
      "duration": 2,
      "durationTicks": 1920,
      "midi": 60,
      "name": "C4",
      "ticks": 58080,
      "time": 60.5,
      "velocity": 0.5905511811023622
    },
    {
      "duration": 0.5,
      "durationTicks": 480,
      "midi": 60,
      "name": "C4",
      "ticks": 60000,
      "time": 62.5,
      "velocity": 0.6220472440944882
    },
    {
      "duration": 0.5,
      "durationTicks": 480,
      "midi": 61,
      "name": "C#4",
      "ticks": 60480,
      "time": 63,
      "velocity": 0.6141732283464567
    },
    {
      "duration": 0.5,
      "durationTicks": 480,
      "midi": 60,
      "name": "C4",
      "ticks": 60960,
      "time": 63.5,
      "velocity": 0.6062992125984252
    },
    {
      "duration": 1,
      "durationTicks": 960,
      "midi": 61,
      "name": "C#4",
      "ticks": 61920,
      "time": 64.5,
      "velocity": 0.5984251968503937
    },
    {
      "duration": 0.5,
      "durationTicks": 480,
      "midi": 60,
      "name": "C4",
      "ticks": 62880,
      "time": 65.5,
      "velocity": 0.6220472440944882
    },
    {
      "duration": 0.5,
      "durationTicks": 480,
      "midi": 61,
      "name": "C#4",
      "ticks": 63360,
      "time": 66,
      "velocity": 0.6220472440944882
    },
    {
      "duration": 0.5,
      "durationTicks": 480,
      "midi": 60,
      "name": "C4",
      "ticks": 63840,
      "time": 66.5,
      "velocity": 0.6299212598425197
    },
    {
      "duration": 0.5,
      "durationTicks": 480,
      "midi": 61,
      "name": "C#4",
      "ticks": 64320,
      "time": 67,
      "velocity": 0.5905511811023622
    },
    {
      "duration": 1,
      "durationTicks": 960,
      "midi": 60,
      "name": "C4",
      "ticks": 64800,
      "time": 67.5,
      "velocity": 0.5984251968503937
    },
    {
      "duration": 0.5,
      "durationTicks": 480,
      "midi": 61,
      "name": "C#4",
      "ticks": 65760,
      "time": 68.5,
      "velocity": 0.5748031496062992
    },
    {
      "duration": 0.5,
      "durationTicks": 480,
      "midi": 60,
      "name": "C4",
      "ticks": 66240,
      "time": 69,
      "velocity": 0.6220472440944882
    },
    {
      "duration": 0.5,
      "durationTicks": 480,
      "midi": 61,
      "name": "C#4",
      "ticks": 66720,
      "time": 69.5,
      "velocity": 0.6299212598425197
    },
    {
      "duration": 1.75,
      "durationTicks": 1680,
      "midi": 60,
      "name": "C4",
      "ticks": 67440,
      "time": 70.25,
      "velocity": 0.5984251968503937
    },
    {
      "duration": 0.25,
      "durationTicks": 240,
      "midi": 60,
      "name": "C4",
      "ticks": 69120,
      "time": 72,
      "velocity": 0.5984251968503937
    },
    {
      "duration": 0.25,
      "durationTicks": 240,
      "midi": 61,
      "name": "C#4",
      "ticks": 69360,
      "time": 72.25,
      "velocity": 0.6220472440944882
    },
    {
      "duration": 0.25,
      "durationTicks": 240,
      "midi": 60,
      "name": "C4",
      "ticks": 69600,
      "time": 72.5,
      "velocity": 0.6220472440944882
    },
    {
      "duration": 0.25,
      "durationTicks": 240,
      "midi": 61,
      "name": "C#4",
      "ticks": 69840,
      "time": 72.75,
      "velocity": 0.5905511811023622
    },
    {
      "duration": 0.5,
      "durationTicks": 480,
      "midi": 60,
      "name": "C4",
      "ticks": 70080,
      "time": 73,
      "velocity": 0.6062992125984252
    },
    {
      "duration": 2.5,
      "durationTicks": 2400,
      "midi": 61,
      "name": "C#4",
      "ticks": 70560,
      "time": 73.5,
      "velocity": 0.6220472440944882
    },
    {
      "duration": 0.5,
      "durationTicks": 480,
      "midi": 60,
      "name": "C4",
      "ticks": 73440,
      "time": 76.5,
      "velocity": 0.6141732283464567
    },
    {
      "duration": 0.5,
      "durationTicks": 480,
      "midi": 61,
      "name": "C#4",
      "ticks": 73920,
      "time": 77,
      "velocity": 0.6220472440944882
    },
    {
      "duration": 0.5,
      "durationTicks": 480,
      "midi": 60,
      "name": "C4",
      "ticks": 74400,
      "time": 77.5,
      "velocity": 0.5826771653543307
    },
    {
      "duration": 0.25,
      "durationTicks": 240,
      "midi": 61,
      "name": "C#4",
      "ticks": 75120,
      "time": 78.25,
      "velocity": 0.6062992125984252
    },
    {
      "duration": 0.25,
      "durationTicks": 240,
      "midi": 60,
      "name": "C4",
      "ticks": 75360,
      "time": 78.5,
      "velocity": 0.6062992125984252
    },
    {
      "duration": 0.25,
      "durationTicks": 240,
      "midi": 61,
      "name": "C#4",
      "ticks": 75600,
      "time": 78.75,
      "velocity": 0.6299212598425197
    },
    {
      "duration": 0.5,
      "durationTicks": 480,
      "midi": 60,
      "name": "C4",
      "ticks": 75840,
      "time": 79,
      "velocity": 0.6220472440944882
    },
    {
      "duration": 0.5,
      "durationTicks": 480,
      "midi": 61,
      "name": "C#4",
      "ticks": 76320,
      "time": 79.5,
      "velocity": 0.6062992125984252
    },
    {
      "duration": 0.25,
      "durationTicks": 240,
      "midi": 61,
      "name": "C#4",
      "ticks": 76800,
      "time": 80,
      "velocity": 0.5826771653543307
    },
    {
      "duration": 0.25,
      "durationTicks": 240,
      "midi": 60,
      "name": "C4",
      "ticks": 77040,
      "time": 80.25,
      "velocity": 0.5984251968503937
    },
    {
      "duration": 1,
      "durationTicks": 960,
      "midi": 61,
      "name": "C#4",
      "ticks": 77280,
      "time": 80.5,
      "velocity": 0.6220472440944882
    },
    {
      "duration": 0.25,
      "durationTicks": 240,
      "midi": 60,
      "name": "C4",
      "ticks": 78240,
      "time": 81.5,
      "velocity": 0.5905511811023622
    },
    {
      "duration": 0.25,
      "durationTicks": 240,
      "midi": 61,
      "name": "C#4",
      "ticks": 78480,
      "time": 81.75,
      "velocity": 0.6062992125984252
    },
    {
      "duration": 0.25,
      "durationTicks": 240,
      "midi": 61,
      "name": "C#4",
      "ticks": 78720,
      "time": 82,
      "velocity": 0.5984251968503937
    },
    {
      "duration": 0.5,
      "durationTicks": 480,
      "midi": 60,
      "name": "C4",
      "ticks": 78960,
      "time": 82.25,
      "velocity": 0.6377952755905512
    },
    {
      "duration": 0.5,
      "durationTicks": 480,
      "midi": 61,
      "name": "C#4",
      "ticks": 79440,
      "time": 82.75,
      "velocity": 0.6299212598425197
    },
    {
      "duration": 0.5,
      "durationTicks": 480,
      "midi": 60,
      "name": "C4",
      "ticks": 79920,
      "time": 83.25,
      "velocity": 0.5905511811023622
    },
    {
      "duration": 1.25,
      "durationTicks": 1200,
      "midi": 61,
      "name": "C#4",
      "ticks": 80400,
      "time": 83.75,
      "velocity": 0.6062992125984252
    },
    {
      "duration": 0.25,
      "durationTicks": 240,
      "midi": 61,
      "name": "C#4",
      "ticks": 82080,
      "time": 85.5,
      "velocity": 0.6220472440944882
    },
    {
      "duration": 0.25,
      "durationTicks": 240,
      "midi": 60,
      "name": "C4",
      "ticks": 82320,
      "time": 85.75,
      "velocity": 0.6141732283464567
    },
    {
      "duration": 0.25,
      "durationTicks": 240,
      "midi": 61,
      "name": "C#4",
      "ticks": 82560,
      "time": 86,
      "velocity": 0.5826771653543307
    },
    {
      "duration": 0.25,
      "durationTicks": 240,
      "midi": 60,
      "name": "C4",
      "ticks": 82800,
      "time": 86.25,
      "velocity": 0.6299212598425197
    },
    {
      "duration": 0.25,
      "durationTicks": 240,
      "midi": 61,
      "name": "C#4",
      "ticks": 83040,
      "time": 86.5,
      "velocity": 0.5826771653543307
    },
    {
      "duration": 1.25,
      "durationTicks": 1200,
      "midi": 60,
      "name": "C4",
      "ticks": 83280,
      "time": 86.75,
      "velocity": 0.6062992125984252
    },
    {
      "duration": 0.25,
      "durationTicks": 240,
      "midi": 61,
      "name": "C#4",
      "ticks": 84480,
      "time": 88,
      "velocity": 0.5905511811023622
    },
    {
      "duration": 0.25,
      "durationTicks": 240,
      "midi": 60,
      "name": "C4",
      "ticks": 84720,
      "time": 88.25,
      "velocity": 0.5984251968503937
    },
    {
      "duration": 1,
      "durationTicks": 960,
      "midi": 61,
      "name": "C#4",
      "ticks": 84960,
      "time": 88.5,
      "velocity": 0.5669291338582677
    },
    {
      "duration": 0.25,
      "durationTicks": 240,
      "midi": 60,
      "name": "C4",
      "ticks": 85920,
      "time": 89.5,
      "velocity": 0.5905511811023622
    },
    {
      "duration": 0.25,
      "durationTicks": 240,
      "midi": 61,
      "name": "C#4",
      "ticks": 86160,
      "time": 89.75,
      "velocity": 0.5905511811023622
    },
    {
      "duration": 0.25,
      "durationTicks": 240,
      "midi": 61,
      "name": "C#4",
      "ticks": 86400,
      "time": 90,
      "velocity": 0.6299212598425197
    },
    {
      "duration": 0.25,
      "durationTicks": 240,
      "midi": 60,
      "name": "C4",
      "ticks": 86640,
      "time": 90.25,
      "velocity": 0.6299212598425197
    },
    {
      "duration": 0.25,
      "durationTicks": 240,
      "midi": 61,
      "name": "C#4",
      "ticks": 86880,
      "time": 90.5,
      "velocity": 0.5984251968503937
    },
    {
      "duration": 0.25,
      "durationTicks": 240,
      "midi": 60,
      "name": "C4",
      "ticks": 87120,
      "time": 90.75,
      "velocity": 0.5826771653543307
    },
    {
      "duration": 0.5,
      "durationTicks": 480,
      "midi": 61,
      "name": "C#4",
      "ticks": 87360,
      "time": 91,
      "velocity": 0.6220472440944882
    },
    {
      "duration": 0.5,
      "durationTicks": 480,
      "midi": 60,
      "name": "C4",
      "ticks": 87840,
      "time": 91.5,
      "velocity": 0.5905511811023622
    },
    {
      "duration": 0.5,
      "durationTicks": 480,
      "midi": 60,
      "name": "C4",
      "ticks": 88800,
      "time": 92.5,
      "velocity": 0.5984251968503937
    },
    {
      "duration": 0.5,
      "durationTicks": 480,
      "midi": 61,
      "name": "C#4",
      "ticks": 89280,
      "time": 93,
      "velocity": 0.6141732283464567
    },
    {
      "duration": 0.5,
      "durationTicks": 480,
      "midi": 60,
      "name": "C4",
      "ticks": 89760,
      "time": 93.5,
      "velocity": 0.5826771653543307
    },
    {
      "duration": 0.25,
      "durationTicks": 240,
      "midi": 61,
      "name": "C#4",
      "ticks": 90480,
      "time": 94.25,
      "velocity": 0.5590551181102362
    },
    {
      "duration": 0.25,
      "durationTicks": 240,
      "midi": 60,
      "name": "C4",
      "ticks": 90720,
      "time": 94.5,
      "velocity": 0.6062992125984252
    },
    {
      "duration": 0.25,
      "durationTicks": 240,
      "midi": 61,
      "name": "C#4",
      "ticks": 90960,
      "time": 94.75,
      "velocity": 0.5669291338582677
    },
    {
      "duration": 0.25,
      "durationTicks": 240,
      "midi": 60,
      "name": "C4",
      "ticks": 91200,
      "time": 95,
      "velocity": 0.5984251968503937
    },
    {
      "duration": 0.25,
      "durationTicks": 240,
      "midi": 61,
      "name": "C#4",
      "ticks": 91440,
      "time": 95.25,
      "velocity": 0.6062992125984252
    },
    {
      "duration": 0.5,
      "durationTicks": 480,
      "midi": 60,
      "name": "C4",
      "ticks": 91680,
      "time": 95.5,
      "velocity": 0.5826771653543307
    }
  ],

  "bari": [
    {
      "duration": 0.5,
      "durationTicks": 480,
      "midi": 61,
      "name": "C#4",
      "ticks": 15360,
      "time": 16,
      "velocity": 0.6377952755905512
    },
    {
      "duration": 0.5,
      "durationTicks": 480,
      "midi": 60,
      "name": "C4",
      "ticks": 16320,
      "time": 17,
      "velocity": 0.5669291338582677
    },
    {
      "duration": 0.5,
      "durationTicks": 480,
      "midi": 61,
      "name": "C#4",
      "ticks": 17280,
      "time": 18,
      "velocity": 0.6141732283464567
    },
    {
      "duration": 0.5,
      "durationTicks": 480,
      "midi": 60,
      "name": "C4",
      "ticks": 18240,
      "time": 19,
      "velocity": 0.5669291338582677
    },
    {
      "duration": 0.5,
      "durationTicks": 480,
      "midi": 61,
      "name": "C#4",
      "ticks": 19200,
      "time": 20,
      "velocity": 0.6299212598425197
    },
    {
      "duration": 0.5,
      "durationTicks": 480,
      "midi": 60,
      "name": "C4",
      "ticks": 20160,
      "time": 21,
      "velocity": 0.6141732283464567
    },
    {
      "duration": 0.5,
      "durationTicks": 480,
      "midi": 61,
      "name": "C#4",
      "ticks": 21120,
      "time": 22,
      "velocity": 0.5984251968503937
    },
    {
      "duration": 0.5,
      "durationTicks": 480,
      "midi": 60,
      "name": "C4",
      "ticks": 22080,
      "time": 23,
      "velocity": 0.5905511811023622
    },
    {
      "duration": 0.5,
      "durationTicks": 480,
      "midi": 61,
      "name": "C#4",
      "ticks": 23040,
      "time": 24,
      "velocity": 0.6377952755905512
    },
    {
      "duration": 0.5,
      "durationTicks": 480,
      "midi": 60,
      "name": "C4",
      "ticks": 24000,
      "time": 25,
      "velocity": 0.6456692913385826
    },
    {
      "duration": 0.5,
      "durationTicks": 480,
      "midi": 61,
      "name": "C#4",
      "ticks": 24960,
      "time": 26,
      "velocity": 0.6062992125984252
    },
    {
      "duration": 0.5,
      "durationTicks": 480,
      "midi": 60,
      "name": "C4",
      "ticks": 25920,
      "time": 27,
      "velocity": 0.6141732283464567
    },
    {
      "duration": 0.5,
      "durationTicks": 480,
      "midi": 61,
      "name": "C#4",
      "ticks": 26880,
      "time": 28,
      "velocity": 0.6141732283464567
    },
    {
      "duration": 0.5,
      "durationTicks": 480,
      "midi": 60,
      "name": "C4",
      "ticks": 27840,
      "time": 29,
      "velocity": 0.6062992125984252
    },
    {
      "duration": 0.5,
      "durationTicks": 480,
      "midi": 61,
      "name": "C#4",
      "ticks": 28800,
      "time": 30,
      "velocity": 0.5905511811023622
    },
    {
      "duration": 0.5,
      "durationTicks": 480,
      "midi": 60,
      "name": "C4",
      "ticks": 29280,
      "time": 30.5,
      "velocity": 0.6141732283464567
    },
    {
      "duration": 0.5,
      "durationTicks": 480,
      "midi": 61,
      "name": "C#4",
      "ticks": 29760,
      "time": 31,
      "velocity": 0.6062992125984252
    },
    {
      "duration": 0.5,
      "durationTicks": 480,
      "midi": 61,
      "name": "C#4",
      "ticks": 30720,
      "time": 32,
      "velocity": 0.6535433070866141
    },
    {
      "duration": 0.5,
      "durationTicks": 480,
      "midi": 60,
      "name": "C4",
      "ticks": 31680,
      "time": 33,
      "velocity": 0.6220472440944882
    },
    {
      "duration": 0.5,
      "durationTicks": 480,
      "midi": 61,
      "name": "C#4",
      "ticks": 32640,
      "time": 34,
      "velocity": 0.5826771653543307
    },
    {
      "duration": 0.25,
      "durationTicks": 240,
      "midi": 60,
      "name": "C4",
      "ticks": 33840,
      "time": 35.25,
      "velocity": 0.6062992125984252
    },
    {
      "duration": 0.25,
      "durationTicks": 240,
      "midi": 61,
      "name": "C#4",
      "ticks": 34080,
      "time": 35.5,
      "velocity": 0.6141732283464567
    },
    {
      "duration": 0.25,
      "durationTicks": 240,
      "midi": 60,
      "name": "C4",
      "ticks": 34320,
      "time": 35.75,
      "velocity": 0.5984251968503937
    },
    {
      "duration": 0.5,
      "durationTicks": 480,
      "midi": 61,
      "name": "C#4",
      "ticks": 34560,
      "time": 36,
      "velocity": 0.5826771653543307
    },
    {
      "duration": 0.5,
      "durationTicks": 480,
      "midi": 60,
      "name": "C4",
      "ticks": 35520,
      "time": 37,
      "velocity": 0.6062992125984252
    },
    {
      "duration": 0.5,
      "durationTicks": 480,
      "midi": 61,
      "name": "C#4",
      "ticks": 36480,
      "time": 38,
      "velocity": 0.6220472440944882
    },
    {
      "duration": 0.25,
      "durationTicks": 240,
      "midi": 60,
      "name": "C4",
      "ticks": 37680,
      "time": 39.25,
      "velocity": 0.5669291338582677
    },
    {
      "duration": 0.25,
      "durationTicks": 240,
      "midi": 61,
      "name": "C#4",
      "ticks": 37920,
      "time": 39.5,
      "velocity": 0.6456692913385826
    },
    {
      "duration": 0.25,
      "durationTicks": 240,
      "midi": 60,
      "name": "C4",
      "ticks": 38160,
      "time": 39.75,
      "velocity": 0.5748031496062992
    },
    {
      "duration": 0.5,
      "durationTicks": 480,
      "midi": 61,
      "name": "C#4",
      "ticks": 38400,
      "time": 40,
      "velocity": 0.6062992125984252
    },
    {
      "duration": 0.5,
      "durationTicks": 480,
      "midi": 60,
      "name": "C4",
      "ticks": 39360,
      "time": 41,
      "velocity": 0.5905511811023622
    },
    {
      "duration": 0.5,
      "durationTicks": 480,
      "midi": 61,
      "name": "C#4",
      "ticks": 40320,
      "time": 42,
      "velocity": 0.5826771653543307
    },
    {
      "duration": 0.25,
      "durationTicks": 240,
      "midi": 60,
      "name": "C4",
      "ticks": 41520,
      "time": 43.25,
      "velocity": 0.5826771653543307
    },
    {
      "duration": 0.25,
      "durationTicks": 240,
      "midi": 61,
      "name": "C#4",
      "ticks": 41760,
      "time": 43.5,
      "velocity": 0.6377952755905512
    },
    {
      "duration": 0.25,
      "durationTicks": 240,
      "midi": 60,
      "name": "C4",
      "ticks": 42000,
      "time": 43.75,
      "velocity": 0.6141732283464567
    },
    {
      "duration": 0.5,
      "durationTicks": 480,
      "midi": 61,
      "name": "C#4",
      "ticks": 42240,
      "time": 44,
      "velocity": 0.5905511811023622
    },
    {
      "duration": 0.5,
      "durationTicks": 480,
      "midi": 60,
      "name": "C4",
      "ticks": 43200,
      "time": 45,
      "velocity": 0.6220472440944882
    },
    {
      "duration": 0.5,
      "durationTicks": 480,
      "midi": 61,
      "name": "C#4",
      "ticks": 44160,
      "time": 46,
      "velocity": 0.6141732283464567
    },
    {
      "duration": 0.25,
      "durationTicks": 240,
      "midi": 60,
      "name": "C4",
      "ticks": 45360,
      "time": 47.25,
      "velocity": 0.6062992125984252
    },
    {
      "duration": 0.25,
      "durationTicks": 240,
      "midi": 61,
      "name": "C#4",
      "ticks": 45600,
      "time": 47.5,
      "velocity": 0.5590551181102362
    },
    {
      "duration": 0.25,
      "durationTicks": 240,
      "midi": 60,
      "name": "C4",
      "ticks": 45840,
      "time": 47.75,
      "velocity": 0.5984251968503937
    },
    {
      "duration": 0.5,
      "durationTicks": 480,
      "midi": 61,
      "name": "C#4",
      "ticks": 46080,
      "time": 48,
      "velocity": 0.6299212598425197
    },
    {
      "duration": 0.5,
      "durationTicks": 480,
      "midi": 60,
      "name": "C4",
      "ticks": 46560,
      "time": 48.5,
      "velocity": 0.5984251968503937
    },
    {
      "duration": 0.5,
      "durationTicks": 480,
      "midi": 61,
      "name": "C#4",
      "ticks": 47040,
      "time": 49,
      "velocity": 0.6141732283464567
    },
    {
      "duration": 0.5,
      "durationTicks": 480,
      "midi": 60,
      "name": "C4",
      "ticks": 47520,
      "time": 49.5,
      "velocity": 0.6456692913385826
    },
    {
      "duration": 1,
      "durationTicks": 960,
      "midi": 61,
      "name": "C#4",
      "ticks": 48000,
      "time": 50,
      "velocity": 0.5984251968503937
    },
    {
      "duration": 1,
      "durationTicks": 960,
      "midi": 60,
      "name": "C4",
      "ticks": 48960,
      "time": 51,
      "velocity": 0.5826771653543307
    },
    {
      "duration": 1,
      "durationTicks": 960,
      "midi": 61,
      "name": "C#4",
      "ticks": 49920,
      "time": 52,
      "velocity": 0.5984251968503937
    },
    {
      "duration": 1,
      "durationTicks": 960,
      "midi": 60,
      "name": "C4",
      "ticks": 50880,
      "time": 53,
      "velocity": 0.6220472440944882
    },
    {
      "duration": 1,
      "durationTicks": 960,
      "midi": 61,
      "name": "C#4",
      "ticks": 51840,
      "time": 54,
      "velocity": 0.5984251968503937
    },
    {
      "duration": 1,
      "durationTicks": 960,
      "midi": 60,
      "name": "C4",
      "ticks": 52800,
      "time": 55,
      "velocity": 0.5905511811023622
    },
    {
      "duration": 0.5,
      "durationTicks": 480,
      "midi": 60,
      "name": "C4",
      "ticks": 55200,
      "time": 57.5,
      "velocity": 0.6141732283464567
    },
    {
      "duration": 2,
      "durationTicks": 1920,
      "midi": 61,
      "name": "C#4",
      "ticks": 55680,
      "time": 58,
      "velocity": 0.6220472440944882
    },
    {
      "duration": 2.5,
      "durationTicks": 2400,
      "midi": 60,
      "name": "C4",
      "ticks": 57600,
      "time": 60,
      "velocity": 0.5984251968503937
    },
    {
      "duration": 0.5,
      "durationTicks": 480,
      "midi": 60,
      "name": "C4",
      "ticks": 60000,
      "time": 62.5,
      "velocity": 0.6377952755905512
    },
    {
      "duration": 0.5,
      "durationTicks": 480,
      "midi": 61,
      "name": "C#4",
      "ticks": 60480,
      "time": 63,
      "velocity": 0.5984251968503937
    },
    {
      "duration": 0.5,
      "durationTicks": 480,
      "midi": 60,
      "name": "C4",
      "ticks": 60960,
      "time": 63.5,
      "velocity": 0.6062992125984252
    },
    {
      "duration": 3,
      "durationTicks": 2880,
      "midi": 61,
      "name": "C#4",
      "ticks": 61440,
      "time": 64,
      "velocity": 0.5905511811023622
    },
    {
      "duration": 0.25,
      "durationTicks": 240,
      "midi": 60,
      "name": "C4",
      "ticks": 64320,
      "time": 67,
      "velocity": 0.5826771653543307
    },
    {
      "duration": 0.25,
      "durationTicks": 240,
      "midi": 61,
      "name": "C#4",
      "ticks": 64560,
      "time": 67.25,
      "velocity": 0.5590551181102362
    },
    {
      "duration": 0.25,
      "durationTicks": 240,
      "midi": 60,
      "name": "C4",
      "ticks": 64800,
      "time": 67.5,
      "velocity": 0.5748031496062992
    },
    {
      "duration": 0.25,
      "durationTicks": 240,
      "midi": 61,
      "name": "C#4",
      "ticks": 65040,
      "time": 67.75,
      "velocity": 0.6299212598425197
    },
    {
      "duration": 0.5,
      "durationTicks": 480,
      "midi": 60,
      "name": "C4",
      "ticks": 65280,
      "time": 68,
      "velocity": 0.5984251968503937
    },
    {
      "duration": 2,
      "durationTicks": 1920,
      "midi": 60,
      "name": "C4",
      "ticks": 66240,
      "time": 69,
      "velocity": 0.6062992125984252
    },
    {
      "duration": 0.25,
      "durationTicks": 240,
      "midi": 61,
      "name": "C#4",
      "ticks": 68160,
      "time": 71,
      "velocity": 0.5669291338582677
    },
    {
      "duration": 0.25,
      "durationTicks": 240,
      "midi": 60,
      "name": "C4",
      "ticks": 68400,
      "time": 71.25,
      "velocity": 0.6141732283464567
    },
    {
      "duration": 0.25,
      "durationTicks": 240,
      "midi": 61,
      "name": "C#4",
      "ticks": 68640,
      "time": 71.5,
      "velocity": 0.6141732283464567
    },
    {
      "duration": 0.25,
      "durationTicks": 240,
      "midi": 60,
      "name": "C4",
      "ticks": 68880,
      "time": 71.75,
      "velocity": 0.6062992125984252
    },
    {
      "duration": 1.5,
      "durationTicks": 1440,
      "midi": 61,
      "name": "C#4",
      "ticks": 69120,
      "time": 72,
      "velocity": 0.6062992125984252
    },
    {
      "duration": 2.5,
      "durationTicks": 2400,
      "midi": 60,
      "name": "C4",
      "ticks": 70560,
      "time": 73.5,
      "velocity": 0.5984251968503937
    },
    {
      "duration": 0.5,
      "durationTicks": 480,
      "midi": 61,
      "name": "C#4",
      "ticks": 72960,
      "time": 76,
      "velocity": 0.6062992125984252
    },
    {
      "duration": 0.5,
      "durationTicks": 480,
      "midi": 60,
      "name": "C4",
      "ticks": 73440,
      "time": 76.5,
      "velocity": 0.6220472440944882
    },
    {
      "duration": 0.5,
      "durationTicks": 480,
      "midi": 61,
      "name": "C#4",
      "ticks": 73920,
      "time": 77,
      "velocity": 0.6141732283464567
    },
    {
      "duration": 0.5,
      "durationTicks": 480,
      "midi": 60,
      "name": "C4",
      "ticks": 74400,
      "time": 77.5,
      "velocity": 0.5984251968503937
    },
    {
      "duration": 0.25,
      "durationTicks": 240,
      "midi": 60,
      "name": "C4",
      "ticks": 75120,
      "time": 78.25,
      "velocity": 0.5748031496062992
    },
    {
      "duration": 0.25,
      "durationTicks": 240,
      "midi": 61,
      "name": "C#4",
      "ticks": 75360,
      "time": 78.5,
      "velocity": 0.5826771653543307
    },
    {
      "duration": 0.25,
      "durationTicks": 240,
      "midi": 60,
      "name": "C4",
      "ticks": 75600,
      "time": 78.75,
      "velocity": 0.6141732283464567
    },
    {
      "duration": 0.5,
      "durationTicks": 480,
      "midi": 61,
      "name": "C#4",
      "ticks": 75840,
      "time": 79,
      "velocity": 0.5905511811023622
    },
    {
      "duration": 0.5,
      "durationTicks": 480,
      "midi": 60,
      "name": "C4",
      "ticks": 76320,
      "time": 79.5,
      "velocity": 0.5984251968503937
    },
    {
      "duration": 0.25,
      "durationTicks": 240,
      "midi": 61,
      "name": "C#4",
      "ticks": 76800,
      "time": 80,
      "velocity": 0.5669291338582677
    },
    {
      "duration": 0.25,
      "durationTicks": 240,
      "midi": 60,
      "name": "C4",
      "ticks": 77040,
      "time": 80.25,
      "velocity": 0.5984251968503937
    },
    {
      "duration": 1,
      "durationTicks": 960,
      "midi": 61,
      "name": "C#4",
      "ticks": 77280,
      "time": 80.5,
      "velocity": 0.5826771653543307
    },
    {
      "duration": 0.25,
      "durationTicks": 240,
      "midi": 60,
      "name": "C4",
      "ticks": 78240,
      "time": 81.5,
      "velocity": 0.6220472440944882
    },
    {
      "duration": 0.25,
      "durationTicks": 240,
      "midi": 61,
      "name": "C#4",
      "ticks": 78480,
      "time": 81.75,
      "velocity": 0.6377952755905512
    },
    {
      "duration": 0.25,
      "durationTicks": 240,
      "midi": 61,
      "name": "C#4",
      "ticks": 78960,
      "time": 82.25,
      "velocity": 0.5590551181102362
    },
    {
      "duration": 1.5,
      "durationTicks": 1440,
      "midi": 60,
      "name": "C4",
      "ticks": 79200,
      "time": 82.5,
      "velocity": 0.5984251968503937
    },
    {
      "duration": 0.25,
      "durationTicks": 240,
      "midi": 61,
      "name": "C#4",
      "ticks": 80640,
      "time": 84,
      "velocity": 0.5905511811023622
    },
    {
      "duration": 0.25,
      "durationTicks": 240,
      "midi": 60,
      "name": "C4",
      "ticks": 80880,
      "time": 84.25,
      "velocity": 0.5905511811023622
    },
    {
      "duration": 0.25,
      "durationTicks": 240,
      "midi": 61,
      "name": "C#4",
      "ticks": 81120,
      "time": 84.5,
      "velocity": 0.6141732283464567
    },
    {
      "duration": 0.25,
      "durationTicks": 240,
      "midi": 60,
      "name": "C4",
      "ticks": 81360,
      "time": 84.75,
      "velocity": 0.6141732283464567
    },
    {
      "duration": 0.5,
      "durationTicks": 480,
      "midi": 61,
      "name": "C#4",
      "ticks": 81600,
      "time": 85,
      "velocity": 0.6456692913385826
    },
    {
      "duration": 0.5,
      "durationTicks": 480,
      "midi": 61,
      "name": "C#4",
      "ticks": 82560,
      "time": 86,
      "velocity": 0.6141732283464567
    },
    {
      "duration": 0.25,
      "durationTicks": 240,
      "midi": 60,
      "name": "C4",
      "ticks": 83040,
      "time": 86.5,
      "velocity": 0.5905511811023622
    },
    {
      "duration": 0.25,
      "durationTicks": 240,
      "midi": 61,
      "name": "C#4",
      "ticks": 83280,
      "time": 86.75,
      "velocity": 0.6220472440944882
    },
    {
      "duration": 0.25,
      "durationTicks": 240,
      "midi": 60,
      "name": "C4",
      "ticks": 83520,
      "time": 87,
      "velocity": 0.5826771653543307
    },
    {
      "duration": 0.25,
      "durationTicks": 240,
      "midi": 61,
      "name": "C#4",
      "ticks": 83760,
      "time": 87.25,
      "velocity": 0.5826771653543307
    },
    {
      "duration": 0.5,
      "durationTicks": 480,
      "midi": 60,
      "name": "C4",
      "ticks": 84000,
      "time": 87.5,
      "velocity": 0.5590551181102362
    },
    {
      "duration": 0.25,
      "durationTicks": 240,
      "midi": 61,
      "name": "C#4",
      "ticks": 84480,
      "time": 88,
      "velocity": 0.5984251968503937
    },
    {
      "duration": 0.25,
      "durationTicks": 240,
      "midi": 60,
      "name": "C4",
      "ticks": 84720,
      "time": 88.25,
      "velocity": 0.5748031496062992
    },
    {
      "duration": 1,
      "durationTicks": 960,
      "midi": 61,
      "name": "C#4",
      "ticks": 84960,
      "time": 88.5,
      "velocity": 0.6141732283464567
    },
    {
      "duration": 0.25,
      "durationTicks": 240,
      "midi": 60,
      "name": "C4",
      "ticks": 85920,
      "time": 89.5,
      "velocity": 0.6141732283464567
    },
    {
      "duration": 0.25,
      "durationTicks": 240,
      "midi": 61,
      "name": "C#4",
      "ticks": 86160,
      "time": 89.75,
      "velocity": 0.6062992125984252
    },
    {
      "duration": 0.25,
      "durationTicks": 240,
      "midi": 61,
      "name": "C#4",
      "ticks": 86400,
      "time": 90,
      "velocity": 0.5826771653543307
    },
    {
      "duration": 0.25,
      "durationTicks": 240,
      "midi": 60,
      "name": "C4",
      "ticks": 86640,
      "time": 90.25,
      "velocity": 0.5826771653543307
    },
    {
      "duration": 0.25,
      "durationTicks": 240,
      "midi": 61,
      "name": "C#4",
      "ticks": 86880,
      "time": 90.5,
      "velocity": 0.6141732283464567
    },
    {
      "duration": 0.25,
      "durationTicks": 240,
      "midi": 60,
      "name": "C4",
      "ticks": 87120,
      "time": 90.75,
      "velocity": 0.6141732283464567
    },
    {
      "duration": 1,
      "durationTicks": 960,
      "midi": 61,
      "name": "C#4",
      "ticks": 87360,
      "time": 91,
      "velocity": 0.5905511811023622
    },
    {
      "duration": 2,
      "durationTicks": 1920,
      "midi": 60,
      "name": "C4",
      "ticks": 88320,
      "time": 92,
      "velocity": 0.6141732283464567
    },
    {
      "duration": 0.25,
      "durationTicks": 240,
      "midi": 61,
      "name": "C#4",
      "ticks": 90480,
      "time": 94.25,
      "velocity": 0.6141732283464567
    },
    {
      "duration": 0.25,
      "durationTicks": 240,
      "midi": 60,
      "name": "C4",
      "ticks": 90720,
      "time": 94.5,
      "velocity": 0.5669291338582677
    },
    {
      "duration": 0.25,
      "durationTicks": 240,
      "midi": 61,
      "name": "C#4",
      "ticks": 90960,
      "time": 94.75,
      "velocity": 0.6141732283464567
    },
    {
      "duration": 0.25,
      "durationTicks": 240,
      "midi": 60,
      "name": "C4",
      "ticks": 91200,
      "time": 95,
      "velocity": 0.5984251968503937
    },
    {
      "duration": 0.25,
      "durationTicks": 240,
      "midi": 61,
      "name": "C#4",
      "ticks": 91440,
      "time": 95.25,
      "velocity": 0.5905511811023622
    },
    {
      "duration": 0.5,
      "durationTicks": 480,
      "midi": 60,
      "name": "C4",
      "ticks": 91680,
      "time": 95.5,
      "velocity": 0.5826771653543307
    }
  ]
}